# Blender v2.78 (sub 0) OBJ File: 'WizardHat.blend'
# www.blender.org
mtllib WizardHat.mtl
o Cone_Cone.001
v 0.116586 -0.234632 -1.331841
v 0.311676 -0.234632 -1.312626
v 0.499269 -0.234632 -1.255720
v 0.672156 -0.234632 -1.163311
v 0.823693 -0.234632 -1.038948
v 0.948056 -0.234632 -0.887411
v 1.040465 -0.234632 -0.714524
v 1.097371 -0.234632 -0.526931
v 1.116586 -0.234632 -0.331841
v 0.116586 2.601521 -0.331841
v 1.097371 -0.234632 -0.136751
v 1.040465 -0.234632 0.050842
v 0.948056 -0.234632 0.223729
v 0.823693 -0.234632 0.375266
v 0.672156 -0.234632 0.499629
v 0.499269 -0.234632 0.592039
v 0.311676 -0.234632 0.648944
v 0.116586 -0.234632 0.668159
v -0.078505 -0.234632 0.648944
v -0.266098 -0.234632 0.592038
v -0.438985 -0.234632 0.499628
v -0.590521 -0.234632 0.375265
v -0.714884 -0.234632 0.223729
v -0.807294 -0.234632 0.050842
v -0.864200 -0.234632 -0.136752
v -0.883414 -0.234632 -0.331842
v -0.864199 -0.234632 -0.526932
v -0.807293 -0.234632 -0.714525
v -0.714883 -0.234632 -0.887412
v -0.590520 -0.234632 -1.038949
v -0.438983 -0.234632 -1.163311
v -0.266096 -0.234632 -1.255721
v -0.078503 -0.234632 -1.312627
v 0.116586 -0.315151 -1.331841
v 0.311676 -0.315151 -1.312626
v 0.499269 -0.315151 -1.255720
v 0.672156 -0.315151 -1.163311
v 0.823693 -0.315151 -1.038948
v 0.948056 -0.315151 -0.887411
v 1.040465 -0.315151 -0.714524
v 1.097371 -0.315151 -0.526931
v 1.116586 -0.315151 -0.331841
v 1.097371 -0.315151 -0.136751
v 1.040465 -0.315151 0.050842
v 0.948056 -0.315151 0.223729
v 0.823693 -0.315151 0.375266
v 0.672156 -0.315151 0.499629
v 0.499269 -0.315151 0.592039
v 0.311676 -0.315151 0.648944
v 0.116586 -0.315151 0.668159
v -0.078505 -0.315151 0.648944
v -0.266098 -0.315151 0.592038
v -0.438985 -0.315151 0.499628
v -0.590521 -0.315151 0.375265
v -0.714884 -0.315151 0.223729
v -0.807294 -0.315151 0.050842
v -0.864200 -0.315151 -0.136752
v -0.883414 -0.315151 -0.331842
v -0.864199 -0.315151 -0.526932
v -0.807293 -0.315151 -0.714525
v -0.714883 -0.315151 -0.887412
v -0.590520 -0.315151 -1.038949
v -0.438983 -0.315151 -1.163311
v -0.266096 -0.315151 -1.255721
v -0.078503 -0.315151 -1.312627
v 0.102846 -0.547957 -3.065180
v 0.649461 -0.547957 -3.012825
v 1.175071 -0.547957 -2.857771
v 1.659475 -0.547957 -2.605977
v 2.084059 -0.547957 -2.267121
v 2.432506 -0.547957 -1.854222
v 2.691425 -0.547957 -1.383150
v 2.850867 -0.547957 -0.872007
v 2.904704 -0.547957 -0.340436
v 2.850867 -0.547957 0.191135
v 2.691425 -0.547957 0.702278
v 2.432506 -0.547957 1.173351
v 2.084059 -0.547957 1.586249
v 1.659475 -0.547957 1.925106
v 1.175070 -0.547957 2.176899
v 0.649461 -0.547957 2.331953
v 0.102845 -0.547957 2.384308
v -0.443771 -0.547957 2.331952
v -0.969380 -0.547957 2.176899
v -1.453785 -0.547957 1.925105
v -1.878369 -0.547957 1.586248
v -2.226815 -0.547957 1.173349
v -2.485734 -0.547957 0.702277
v -2.645176 -0.547957 0.191133
v -2.699012 -0.547957 -0.340438
v -2.645175 -0.547957 -0.872010
v -2.485732 -0.547957 -1.383153
v -2.226812 -0.547957 -1.854225
v -1.878365 -0.547957 -2.267123
v -1.453780 -0.547957 -2.605979
v -0.969375 -0.547957 -2.857773
v -0.443765 -0.547957 -3.012825
v 0.102846 -0.562315 -3.065180
v 0.649461 -0.562315 -3.012825
v 1.175071 -0.562315 -2.857771
v 1.659475 -0.562315 -2.605977
v 2.084059 -0.562315 -2.267121
v 2.432506 -0.562315 -1.854222
v 2.691425 -0.562315 -1.383150
v 2.850867 -0.562315 -0.872007
v 2.904704 -0.562315 -0.340436
v 2.850867 -0.562315 0.191135
v 2.691425 -0.562315 0.702278
v 2.432506 -0.562315 1.173351
v 2.084059 -0.562315 1.586249
v 1.659475 -0.562315 1.925106
v 1.175070 -0.562315 2.176899
v 0.649461 -0.562315 2.331953
v 0.102845 -0.562315 2.384308
v -0.443771 -0.562315 2.331952
v -0.969380 -0.562315 2.176899
v -1.453785 -0.562315 1.925105
v -1.878369 -0.562315 1.586248
v -2.226815 -0.562315 1.173349
v -2.485734 -0.562315 0.702277
v -2.645176 -0.562315 0.191133
v -2.699012 -0.562315 -0.340438
v -2.645175 -0.562315 -0.872010
v -2.485732 -0.562315 -1.383153
v -2.226812 -0.562315 -1.854225
v -1.878365 -0.562315 -2.267123
v -1.453780 -0.562315 -2.605979
v -0.969375 -0.562315 -2.857773
v -0.443765 -0.562315 -3.012825
vn 0.0925 0.3311 -0.9391
vn 0.2739 0.3311 -0.9030
vn 0.4448 0.3311 -0.8322
vn 0.5986 0.3311 -0.7294
vn 0.7294 0.3311 -0.5986
vn 0.8322 0.3311 -0.4448
vn 0.9030 0.3311 -0.2739
vn 0.9391 0.3311 -0.0925
vn 0.9391 0.3311 0.0925
vn 0.9030 0.3311 0.2739
vn 0.8322 0.3311 0.4448
vn 0.7294 0.3311 0.5986
vn 0.5986 0.3311 0.7294
vn 0.4448 0.3311 0.8322
vn 0.2739 0.3311 0.9030
vn 0.0925 0.3311 0.9391
vn -0.0925 0.3311 0.9391
vn -0.2739 0.3311 0.9030
vn -0.4448 0.3311 0.8322
vn -0.5986 0.3311 0.7294
vn -0.7294 0.3311 0.5986
vn -0.8322 0.3311 0.4448
vn -0.9030 0.3311 0.2739
vn -0.9391 0.3311 0.0925
vn -0.9391 0.3311 -0.0925
vn -0.9030 0.3311 -0.2739
vn -0.8322 0.3311 -0.4448
vn -0.7294 0.3311 -0.5986
vn -0.5986 0.3311 -0.7294
vn -0.4448 0.3311 -0.8322
vn -0.2739 0.3311 -0.9030
vn -0.0925 0.3311 -0.9391
vn -0.1702 0.9853 0.0171
vn 0.0000 -1.0000 -0.0000
vn -0.1221 -0.9903 -0.0666
vn -0.1320 -0.9904 -0.0409
vn 0.1664 0.9847 0.0515
vn -0.1641 0.9851 0.0508
vn -0.1370 -0.9905 -0.0138
vn -0.1369 -0.9905 0.0138
vn 0.1727 0.9848 0.0174
vn -0.1519 0.9849 0.0829
vn -0.1317 -0.9905 0.0408
vn -0.1216 -0.9904 0.0663
vn 0.0136 -0.9899 0.1410
vn -0.1339 0.9846 0.1121
vn -0.1068 -0.9902 0.0895
vn 0.0402 -0.9900 0.1352
vn 0.1725 0.9849 -0.0173
vn -0.0879 -0.9901 0.1093
vn 0.0650 -0.9901 0.1241
vn -0.1105 0.9843 0.1374
vn -0.0654 -0.9900 0.1250
vn 0.0870 -0.9903 0.1083
vn 0.1660 0.9848 -0.0514
vn -0.0404 -0.9899 0.1358
vn 0.1056 -0.9905 0.0884
vn -0.0826 0.9840 0.1577
vn -0.0136 -0.9899 0.1412
vn 0.1199 -0.9906 0.0654
vn 0.1532 0.9847 -0.0836
vn -0.0171 0.9839 -0.1777
vn 0.1298 -0.9907 0.0402
vn -0.0511 0.9838 0.1719
vn -0.0506 0.9841 -0.1704
vn -0.8763 0.0000 -0.4817
vn 0.4612 0.0000 0.8873
vn 0.9949 0.0000 -0.1008
vn -0.7642 0.0000 0.6449
vn -0.7642 0.0000 -0.6449
vn 0.2829 0.0000 -0.9591
vn 0.2829 0.0000 0.9591
vn -0.8763 0.0000 0.4817
vn -0.6238 0.0000 -0.7816
vn 0.9949 0.0000 0.1008
vn 0.4612 0.0000 -0.8873
vn 0.0953 0.0000 0.9954
vn -0.9546 0.0000 0.2978
vn -0.4612 0.0000 -0.8873
vn 0.9546 0.0000 0.2978
vn 0.6238 0.0000 -0.7816
vn -0.0953 0.0000 0.9954
vn -0.9949 0.0000 0.1008
vn -0.2829 0.0000 -0.9591
vn 0.8763 0.0000 0.4817
vn 0.7642 0.0000 -0.6449
vn -0.2829 0.0000 0.9591
vn -0.0953 0.0000 -0.9954
vn -0.9949 0.0000 -0.1008
vn 0.7642 0.0000 0.6449
vn 0.8763 0.0000 -0.4817
vn -0.4612 0.0000 0.8873
vn -0.9546 0.0000 -0.2978
vn 0.6238 0.0000 0.7816
vn 0.9546 0.0000 -0.2978
vn -0.6238 0.0000 0.7816
vn 0.0953 0.0000 -0.9954
vn 0.1539 0.9845 0.0840
vn -0.1075 -0.9901 -0.0900
vn -0.0885 -0.9900 -0.1101
vn -0.1700 0.9853 -0.0171
vn 0.1354 0.9843 0.1134
vn -0.0660 -0.9898 -0.1261
vn -0.0407 -0.9897 -0.1371
vn -0.1636 0.9852 -0.0507
vn 0.1116 0.9840 0.1388
vn 0.0172 0.9839 -0.1779
vn -0.0138 -0.9897 -0.1426
vn 0.0137 -0.9897 -0.1424
vn -0.1512 0.9851 -0.0825
vn 0.0832 0.9838 0.1588
vn 0.0406 -0.9898 -0.1365
vn 0.0509 0.9839 -0.1711
vn 0.0655 -0.9900 -0.1252
vn -0.1330 0.9848 -0.1115
vn 0.0513 0.9836 0.1727
vn 0.0877 -0.9902 -0.1091
vn 0.0825 0.9841 -0.1575
vn 0.1062 -0.9904 -0.0890
vn -0.1097 0.9846 -0.1364
vn 0.0173 0.9836 0.1797
vn 0.1205 -0.9905 -0.0657
vn 0.1107 0.9843 -0.1377
vn 0.1302 -0.9907 -0.0403
vn -0.0819 0.9843 -0.1564
vn -0.0173 0.9836 0.1794
vn 0.1350 -0.9908 -0.0136
vn 0.1346 0.9845 -0.1127
vn 0.1348 -0.9908 0.0136
usemtl None
s off
f 1//1 10//1 2//1
f 2//2 10//2 3//2
f 3//3 10//3 4//3
f 4//4 10//4 5//4
f 5//5 10//5 6//5
f 6//6 10//6 7//6
f 7//7 10//7 8//7
f 8//8 10//8 9//8
f 9//9 10//9 11//9
f 11//10 10//10 12//10
f 12//11 10//11 13//11
f 13//12 10//12 14//12
f 14//13 10//13 15//13
f 15//14 10//14 16//14
f 16//15 10//15 17//15
f 17//16 10//16 18//16
f 18//17 10//17 19//17
f 19//18 10//18 20//18
f 20//19 10//19 21//19
f 21//20 10//20 22//20
f 22//21 10//21 23//21
f 23//22 10//22 24//22
f 24//23 10//23 25//23
f 25//24 10//24 26//24
f 26//25 10//25 27//25
f 27//26 10//26 28//26
f 28//27 10//27 29//27
f 29//28 10//28 30//28
f 30//29 10//29 31//29
f 31//30 10//30 32//30
f 32//31 10//31 33//31
f 33//32 10//32 1//32
f 25//33 26//33 90//33 89//33
f 34//34 35//34 36//34 37//34 38//34 39//34 40//34 41//34 42//34 43//34 44//34 45//34 46//34 47//34 48//34 49//34 50//34 51//34 52//34 53//34 54//34 55//34 56//34 57//34 58//34 59//34 60//34 61//34 62//34 63//34 64//34 65//34
f 45//35 44//35 108//35 109//35
f 44//36 43//36 107//36 108//36
f 11//37 12//37 76//37 75//37
f 24//38 25//38 89//38 88//38
f 43//39 42//39 106//39 107//39
f 42//40 41//40 105//40 106//40
f 9//41 11//41 75//41 74//41
f 23//42 24//42 88//42 87//42
f 41//43 40//43 104//43 105//43
f 40//44 39//44 103//44 104//44
f 34//45 65//45 129//45 98//45
f 22//46 23//46 87//46 86//46
f 39//47 38//47 102//47 103//47
f 65//48 64//48 128//48 129//48
f 8//49 9//49 74//49 73//49
f 38//50 37//50 101//50 102//50
f 64//51 63//51 127//51 128//51
f 21//52 22//52 86//52 85//52
f 37//53 36//53 100//53 101//53
f 63//54 62//54 126//54 127//54
f 7//55 8//55 73//55 72//55
f 36//56 35//56 99//56 100//56
f 62//57 61//57 125//57 126//57
f 20//58 21//58 85//58 84//58
f 35//59 34//59 98//59 99//59
f 61//60 60//60 124//60 125//60
f 6//61 7//61 72//61 71//61
f 33//62 1//62 66//62 97//62
f 60//63 59//63 123//63 124//63
f 19//64 20//64 84//64 83//64
f 32//65 33//65 97//65 96//65
f 92//66 93//66 125//66 124//66
f 79//67 80//67 112//67 111//67
f 73//68 74//68 106//68 105//68
f 86//69 87//69 119//69 118//69
f 93//70 94//70 126//70 125//70
f 67//71 68//71 100//71 99//71
f 80//72 81//72 113//72 112//72
f 87//73 88//73 120//73 119//73
f 94//74 95//74 127//74 126//74
f 74//75 75//75 107//75 106//75
f 68//76 69//76 101//76 100//76
f 81//77 82//77 114//77 113//77
f 88//78 89//78 121//78 120//78
f 95//79 96//79 128//79 127//79
f 75//80 76//80 108//80 107//80
f 69//81 70//81 102//81 101//81
f 82//82 83//82 115//82 114//82
f 89//83 90//83 122//83 121//83
f 96//84 97//84 129//84 128//84
f 76//85 77//85 109//85 108//85
f 70//86 71//86 103//86 102//86
f 83//87 84//87 116//87 115//87
f 97//88 66//88 98//88 129//88
f 90//89 91//89 123//89 122//89
f 77//90 78//90 110//90 109//90
f 71//91 72//91 104//91 103//91
f 84//92 85//92 117//92 116//92
f 91//93 92//93 124//93 123//93
f 78//94 79//94 111//94 110//94
f 72//95 73//95 105//95 104//95
f 85//96 86//96 118//96 117//96
f 66//97 67//97 99//97 98//97
f 12//98 13//98 77//98 76//98
f 46//99 45//99 109//99 110//99
f 47//100 46//100 110//100 111//100
f 26//101 27//101 91//101 90//101
f 13//102 14//102 78//102 77//102
f 48//103 47//103 111//103 112//103
f 49//104 48//104 112//104 113//104
f 27//105 28//105 92//105 91//105
f 14//106 15//106 79//106 78//106
f 1//107 2//107 67//107 66//107
f 50//108 49//108 113//108 114//108
f 51//109 50//109 114//109 115//109
f 28//110 29//110 93//110 92//110
f 15//111 16//111 80//111 79//111
f 52//112 51//112 115//112 116//112
f 2//113 3//113 68//113 67//113
f 53//114 52//114 116//114 117//114
f 29//115 30//115 94//115 93//115
f 16//116 17//116 81//116 80//116
f 54//117 53//117 117//117 118//117
f 3//118 4//118 69//118 68//118
f 55//119 54//119 118//119 119//119
f 30//120 31//120 95//120 94//120
f 17//121 18//121 82//121 81//121
f 56//122 55//122 119//122 120//122
f 4//123 5//123 70//123 69//123
f 57//124 56//124 120//124 121//124
f 31//125 32//125 96//125 95//125
f 18//126 19//126 83//126 82//126
f 58//127 57//127 121//127 122//127
f 5//128 6//128 71//128 70//128
f 59//129 58//129 122//129 123//129
