# Blender v2.78 (sub 0) OBJ File: 'Goblin.blend'
# www.blender.org
mtllib Goblin.mtl
o Cube_Cube.001
v -0.988465 0.002841 -0.991562
v -0.988465 2.002841 -0.991562
v 1.011535 0.002841 -0.991562
v 1.011535 2.002841 -0.991562
v -0.988465 0.002841 1.008438
v -0.988465 2.002841 1.008438
v 1.011535 0.002841 1.008438
v 1.011535 2.002841 1.008438
v 1.011535 1.336174 1.008438
v 1.011535 0.669507 1.008438
v -0.321799 0.002841 1.008438
v 0.344868 0.002841 1.008438
v 0.344868 2.002841 1.008438
v -0.321799 2.002841 1.008438
v -0.988465 1.336174 1.008438
v -0.988465 0.669507 1.008438
v 0.417798 0.460332 1.010499
v -0.394728 0.460332 1.010499
v 0.344868 1.545349 1.010499
v -0.321799 1.545349 1.010499
v 0.123669 0.315619 1.928442
v -0.100600 0.315619 1.928442
v 0.203973 1.258281 1.457017
v -0.180904 1.258281 1.457017
v 0.381333 1.002841 1.010499
v -0.358263 1.002841 1.010499
v 0.181339 0.786950 1.692730
v -0.158269 0.786950 1.692730
v 0.367747 0.486570 1.469471
v -0.344678 0.486570 1.469471
v -0.268868 1.401815 1.233758
v 0.291938 1.401815 1.233758
v 0.281336 0.894895 1.351614
v -0.258266 0.894895 1.351614
vn -0.0000 0.0000 -1.0000
vn 1.0000 0.0000 -0.0000
vn -0.0018 0.0018 1.0000
vn -1.0000 0.0000 0.0000
vn 0.0000 -1.0000 0.0000
vn 0.0000 1.0000 -0.0000
vn -0.0020 -0.0020 1.0000
vn -0.0033 0.0001 1.0000
vn 0.0020 -0.0020 1.0000
vn 0.0000 -0.0045 1.0000
vn 0.0033 0.0001 1.0000
vn 0.0000 -0.9371 -0.3490
vn 0.0018 0.0018 1.0000
vn 0.0000 0.0045 1.0000
vn 0.0000 0.4473 0.8944
vn -0.8702 0.2080 0.4467
vn 0.0000 0.8412 0.5408
vn 0.9308 0.0959 0.3527
vn 0.8702 0.2080 0.4467
vn 0.9689 0.1496 0.1970
vn 0.9572 0.0555 0.2841
vn -0.9308 0.0959 0.3527
vn -0.9572 0.0555 0.2841
vn -0.9689 0.1496 0.1970
vn 0.0000 -0.9984 0.0571
usemtl None
s off
f 1//1 2//1 4//1 3//1
f 3//2 4//2 8//2 9//2 10//2 7//2
f 20//3 14//3 6//3 15//3
f 5//4 16//4 15//4 6//4 2//4 1//4
f 3//5 7//5 12//5 11//5 5//5 1//5
f 8//6 4//6 2//6 6//6 14//6 13//6
f 11//7 18//7 16//7 5//7
f 18//8 26//8 20//8 15//8 16//8
f 7//9 10//9 17//9 12//9
f 12//10 17//10 18//10 11//10
f 10//11 9//11 19//11 25//11 17//11
f 30//12 29//12 21//12 22//12
f 9//13 8//13 13//13 19//13
f 19//14 13//14 14//14 20//14
f 27//15 23//15 24//15 28//15
f 34//16 30//16 22//16 28//16
f 32//17 31//17 24//17 23//17
f 33//18 32//18 23//18 27//18
f 29//19 33//19 27//19 21//19
f 17//20 25//20 33//20 29//20
f 25//21 19//21 32//21 33//21
f 19//17 20//17 31//17 32//17
f 31//22 34//22 28//22 24//22
f 20//23 26//23 34//23 31//23
f 26//24 18//24 30//24 34//24
f 21//15 27//15 28//15 22//15
f 18//25 17//25 29//25 30//25
