# Blender v2.78 (sub 0) OBJ File: 'Doorway.blend'
# www.blender.org
mtllib Doorway.mtl
o Cube
v 3.138520 3.240524 -0.000000
v 0.000000 3.240524 1.000000
v -0.000001 3.240524 -1.000000
v -3.141354 3.240524 0.000000
v 3.049283 3.135349 -0.000000
v 0.000000 3.135349 0.910763
v -0.000000 3.135348 -0.910763
v -3.052117 3.135349 0.000000
v 2.993978 3.020825 -0.000000
v 0.000000 3.020825 0.855458
v -0.000000 3.020825 -0.855458
v -2.996811 3.020825 0.000000
v 0.000000 3.078087 0.879176
v -3.020530 3.078087 0.000000
v 3.017696 3.078087 -0.000000
v 3.089967 3.187968 -0.000000
v -0.000001 3.187968 -0.951447
v 0.000000 3.187968 0.951447
v -0.000000 3.078087 -0.879176
v -3.092801 3.187968 0.000000
v 3.138520 4.016940 0.899452
v 3.138520 4.016940 -0.899452
v -3.141354 4.016940 -0.899452
v -3.141353 4.016940 0.899453
v 3.037973 3.240524 1.000000
v 3.138521 3.240524 0.899452
v 3.138520 3.240524 -0.899453
v 3.037972 3.240524 -1.000001
v -3.040806 3.240524 -1.000000
v -3.141354 3.240524 -0.899452
v -3.141354 3.240524 0.899452
v -3.040806 3.240524 1.000000
v 2.948736 3.135349 0.910762
v 3.049284 3.135349 0.810215
v 3.049283 3.135349 -0.810216
v 2.948735 3.135348 -0.910763
v -2.951569 3.135349 0.910763
v -3.052116 3.135349 0.810215
v -2.951569 3.135348 -0.910763
v -3.052117 3.135349 -0.810215
v 2.993979 3.020825 0.754910
v 2.893431 3.020825 0.855457
v 2.893430 3.020825 -0.855458
v 2.993978 3.020825 -0.754910
v -2.896264 3.020825 0.855458
v -2.996811 3.020825 0.754910
v -2.996812 3.020825 -0.754909
v -2.896264 3.020825 -0.855457
v -3.092801 3.187968 -0.850899
v -2.992253 3.187968 -0.951447
v -3.092801 3.187968 0.850900
v -2.992253 3.187968 0.951447
v 2.989420 3.187968 0.951447
v 3.089968 3.187968 0.850899
v 2.989419 3.187968 -0.951448
v 3.089967 3.187968 -0.850900
v 2.917148 3.078087 -0.879176
v 3.017696 3.078087 -0.778629
v -2.919982 3.078087 -0.879176
v -3.020530 3.078087 -0.778628
v 3.017697 3.078087 0.778628
v 2.917149 3.078087 0.879176
v -3.020530 3.078087 0.778628
v -2.919982 3.078087 0.879176
v 3.135499 4.016940 0.902474
v 3.037973 3.919414 1.000000
v 3.037972 3.919413 -1.000000
v 3.135499 4.016940 -0.902474
v -3.138332 4.016940 -0.902474
v -3.040806 3.919413 -1.000000
v -3.040806 3.919414 1.000000
v -3.138331 4.016940 0.902474
v 2.809836 3.016675 0.623281
v 2.726820 3.016675 0.706297
v 2.726820 3.016675 -0.706298
v 2.809835 3.016675 -0.623282
v 2.809836 3.016675 -0.000000
v -2.736598 3.016675 0.710663
v -2.820127 3.016675 0.627134
v -2.820127 3.016675 0.000000
v -2.820127 3.016675 -0.627134
v -2.736598 3.016675 -0.710663
v 2.726820 -0.869426 0.706297
v 2.809836 -0.869426 0.623281
v 2.726820 -0.869425 -0.706298
v 2.809835 -0.869425 -0.623282
v 2.809836 -0.869426 -0.000000
v -2.736598 -0.869426 0.710663
v -2.820127 -0.869426 0.627134
v -2.820127 -0.869426 0.000000
v -2.820127 -0.869426 -0.627134
v -2.736598 -0.869426 -0.710663
v 1.738885 3.016675 0.618741
v 1.826441 3.016675 0.706297
v 1.651649 3.016883 0.713780
v 1.826441 3.016675 -0.706298
v 1.738884 3.016675 -0.618741
v 1.651649 3.016883 -0.713781
v -1.747962 3.016675 -0.623107
v -1.835519 3.016675 -0.710663
v -1.660705 3.016882 -0.717891
v -1.835518 3.016675 0.710663
v -1.747962 3.016675 0.623107
v -1.660704 3.016882 0.717891
v 1.826441 -0.869426 0.706297
v 1.738885 -0.869426 0.618741
v 1.738884 -0.869425 -0.618741
v 1.826441 -0.869425 -0.706298
v -1.747962 -0.869426 0.623107
v -1.835518 -0.869426 0.710663
v -1.835519 -0.869426 -0.710663
v -1.747962 -0.869426 -0.623107
vn 0.7071 -0.0000 -0.7071
vn 0.0000 -0.3827 0.9239
vn -0.7071 0.0000 -0.7071
vn -1.0000 0.0000 0.0000
vn 0.7345 -0.6786 -0.0000
vn 1.0000 -0.0000 -0.0000
vn -0.8756 -0.4830 0.0000
vn -0.0000 -0.4830 -0.8756
vn 0.0000 -0.4830 0.8756
vn -0.9239 -0.3827 0.0000
vn -0.0000 -0.3827 -0.9239
vn 0.9239 -0.3827 -0.0000
vn 0.0000 -0.6117 0.7911
vn -0.7911 -0.6117 0.0000
vn 0.7911 -0.6117 -0.0000
vn 0.8756 -0.4830 -0.0000
vn -0.0000 -0.6117 -0.7911
vn -0.0000 -0.6786 -0.7345
vn 0.0000 -0.6786 0.7345
vn -0.7345 -0.6786 0.0000
vn 0.0000 -0.0000 1.0000
vn -0.0000 0.0000 -1.0000
vn -0.7071 0.0000 0.7071
vn -0.4772 -0.7379 -0.4772
vn -0.4298 -0.7941 0.4298
vn 0.4298 -0.7941 0.4298
vn 0.4772 -0.7379 -0.4772
vn 0.6101 -0.5054 -0.6101
vn -0.5575 -0.6151 -0.5575
vn 0.6101 -0.5054 0.6101
vn -0.5575 -0.6151 0.5575
vn -0.4298 -0.7941 -0.4298
vn -0.4772 -0.7379 0.4772
vn 0.4772 -0.7379 0.4772
vn 0.4298 -0.7941 -0.4298
vn 0.5575 -0.6151 -0.5575
vn -0.6101 -0.5054 -0.6101
vn 0.5575 -0.6151 0.5575
vn -0.6101 -0.5054 0.6101
vn 0.7071 0.0000 0.7071
vn 0.0000 0.7071 0.7071
vn -0.0000 0.7071 -0.7071
vn 0.0000 1.0000 -0.0000
vn -0.0024 -1.0000 0.0000
vn 0.0131 -0.9998 0.0131
vn 0.0131 -0.9998 -0.0131
vn 0.0225 -0.9997 0.0000
vn -0.0000 -1.0000 -0.0000
vn -0.0136 -0.9998 0.0136
vn -0.0235 -0.9997 0.0000
vn -0.0136 -0.9998 -0.0136
vn 0.0024 -1.0000 0.0000
vn 0.0000 -0.9996 -0.0278
vn 0.0000 -0.9996 -0.0287
vn -0.0000 -0.9996 0.0287
vn -0.0011 -1.0000 0.0011
vn -0.0011 -1.0000 -0.0011
vn 0.0011 -1.0000 -0.0011
vn 0.0011 -1.0000 0.0011
vn 0.0000 -0.9996 0.0278
usemtl Material
s off
f 22//1 27//1 28//1 67//1 68//1
f 62//2 13//2 10//2 42//2
f 69//3 70//3 29//3 30//3 23//3
f 23//4 30//4 4//4 31//4 24//4
f 1//5 26//5 54//5 16//5
f 21//6 26//6 1//6 27//6 22//6
f 13//2 64//2 45//2 10//2
f 38//7 8//7 14//7 63//7
f 7//8 36//8 57//8 19//8
f 33//9 6//9 13//9 62//9
f 14//10 60//10 47//10 12//10
f 59//11 19//11 11//11 48//11
f 15//12 61//12 41//12 9//12
f 53//13 18//13 6//13 33//13
f 51//14 20//14 8//14 38//14
f 6//9 37//9 64//9 13//9
f 20//14 49//14 40//14 8//14
f 19//11 57//11 43//11 11//11
f 56//15 16//15 5//15 35//15
f 35//16 5//16 15//16 58//16
f 58//12 15//12 9//12 44//12
f 63//10 14//10 12//10 46//10
f 17//17 55//17 36//17 7//17
f 3//18 28//18 55//18 17//18
f 25//19 2//19 18//19 53//19
f 8//7 40//7 60//7 14//7
f 4//20 30//20 49//20 20//20
f 29//18 3//18 17//18 50//18
f 5//16 34//16 61//16 15//16
f 27//5 1//5 16//5 56//5
f 16//15 54//15 34//15 5//15
f 50//17 17//17 7//17 39//17
f 18//13 52//13 37//13 6//13
f 39//8 7//8 19//8 59//8
f 2//19 32//19 52//19 18//19
f 31//20 4//20 20//20 51//20
f 25//21 66//21 71//21 32//21 2//21
f 67//22 28//22 3//22 29//22 70//22
f 24//23 31//23 32//23 71//23 72//23
f 50//24 39//24 40//24 49//24
f 52//25 32//25 31//25 51//25
f 54//26 26//26 25//26 53//26
f 56//27 35//27 36//27 55//27
f 58//28 44//28 43//28 57//28
f 60//29 40//29 39//29 59//29
f 62//30 42//30 41//30 61//30
f 64//31 37//31 38//31 63//31
f 29//32 50//32 49//32 30//32
f 37//33 52//33 51//33 38//33
f 34//34 54//34 53//34 33//34
f 27//35 56//35 55//35 28//35
f 35//36 58//36 57//36 36//36
f 47//37 60//37 59//37 48//37
f 33//38 62//38 61//38 34//38
f 45//39 64//39 63//39 46//39
f 65//40 66//40 25//40 26//40 21//40
f 71//41 66//41 65//41 72//41
f 67//42 70//42 69//42 68//42
f 65//43 21//43 22//43 68//43 69//43 23//43 24//43 72//43
f 11//44 98//44 97//44 93//44 95//44 10//44
f 42//45 74//45 73//45 41//45
f 93//4 97//4 107//4 106//4
f 74//21 94//21 105//21 83//21
f 99//6 103//6 109//6 112//6
f 44//46 76//46 75//46 43//46
f 9//47 77//47 76//47 44//47
f 41//47 73//47 77//47 9//47
f 78//23 79//23 89//23 88//23
f 82//22 100//22 111//22 92//22
f 84//48 83//48 105//48 106//48 107//48 108//48 85//48 86//48 87//48
f 46//49 79//49 78//49 45//49
f 12//50 80//50 79//50 46//50
f 47//50 81//50 80//50 12//50
f 48//51 82//51 81//51 47//51
f 10//52 104//52 103//52 99//52 101//52 11//52
f 111//48 112//48 109//48 110//48 88//48 89//48 90//48 91//48 92//48
f 79//4 80//4 90//4 89//4
f 43//53 75//53 96//53 98//53 11//53
f 80//4 81//4 91//4 90//4
f 75//1 76//1 86//1 85//1
f 81//3 82//3 92//3 91//3
f 76//6 77//6 87//6 86//6
f 102//21 78//21 88//21 110//21
f 77//6 73//6 84//6 87//6
f 11//54 101//54 100//54 82//54 48//54
f 73//40 74//40 83//40 84//40
f 45//55 78//55 102//55 104//55 10//55
f 96//22 75//22 85//22 108//22
f 93//56 94//56 95//56
f 96//57 97//57 98//57
f 99//58 100//58 101//58
f 102//59 103//59 104//59
f 96//3 108//3 107//3 97//3
f 105//23 94//23 93//23 106//23
f 99//1 112//1 111//1 100//1
f 102//40 110//40 109//40 103//40
f 10//60 95//60 94//60 74//60 42//60
