# Blender v2.78 (sub 0) OBJ File: 'PillarTopper.blend'
# www.blender.org
mtllib PillarTopper.mtl
o Cube
v 1.000000 0.388105 0.000000
v 0.000000 0.388105 -1.000000
v -0.000001 0.388105 1.000000
v -1.000000 0.388105 -0.000000
v 0.910763 0.493280 0.000001
v 0.000000 0.493280 -0.910763
v -0.000000 0.493280 0.910763
v -0.910763 0.493280 -0.000000
v 0.855458 0.607803 0.000000
v 0.000000 0.607803 -0.855457
v -0.000000 0.607803 0.855458
v -0.855458 0.607803 -0.000000
v 0.000000 0.550542 -0.879176
v -0.879176 0.550542 -0.000000
v 0.879176 0.550542 0.000001
v -0.000000 0.607803 0.000000
v 0.951447 0.440660 0.000001
v -0.000001 0.440660 0.951447
v 0.000000 0.440660 -0.951447
v -0.000000 0.550542 0.879176
v -0.951447 0.440660 -0.000000
v 0.899452 -0.149125 -1.000000
v 1.000000 -0.149125 -0.899452
v 1.000000 -0.149125 0.899452
v 0.899452 -0.149125 1.000000
v -0.899452 -0.149125 1.000000
v -1.000000 -0.149125 0.899452
v -1.000000 -0.149125 -0.899453
v -0.899452 -0.149125 -1.000000
v 0.899453 0.388105 -1.000000
v 1.000000 0.388105 -0.899452
v 0.999999 0.388105 0.899453
v 0.899452 0.388105 1.000001
v -0.899453 0.388105 1.000000
v -1.000000 0.388105 0.899452
v -1.000000 0.388105 -0.899452
v -0.899452 0.388105 -1.000000
v 0.810216 0.493280 -0.910762
v 0.910763 0.493280 -0.810215
v 0.910762 0.493280 0.810216
v 0.810215 0.493280 0.910763
v -0.810215 0.493280 -0.910763
v -0.910763 0.493280 -0.810215
v -0.810215 0.493280 0.910763
v -0.910763 0.493280 0.810215
v 0.855458 0.607803 -0.754909
v 0.754910 0.607803 -0.855457
v 0.754909 0.607803 0.855458
v 0.855457 0.607803 0.754910
v -0.754910 0.607803 -0.855458
v -0.855458 0.607803 -0.754910
v -0.855458 0.607803 0.754910
v -0.754910 0.607803 0.855457
v -0.951448 0.440660 0.850899
v -0.850900 0.440660 0.951447
v -0.951447 0.440660 -0.850899
v -0.850899 0.440660 -0.951447
v 0.850900 0.440660 -0.951447
v 0.951448 0.440660 -0.850899
v 0.850899 0.440660 0.951448
v 0.951447 0.440660 0.850900
v 0.778628 0.550542 0.879177
v 0.879175 0.550542 0.778629
v -0.778629 0.550542 0.879176
v -0.879176 0.550542 0.778628
v 0.879176 0.550542 -0.778628
v 0.778629 0.550542 -0.879176
v -0.879176 0.550542 -0.778628
v -0.778628 0.550542 -0.879176
vn 0.0000 0.0000 -1.0000
vn 0.0000 0.3827 -0.9239
vn -0.0000 -0.0000 1.0000
vn -1.0000 -0.0000 -0.0000
vn 0.7345 0.6786 0.0000
vn 1.0000 -0.0000 0.0000
vn -0.8756 0.4830 -0.0000
vn -0.0000 0.4830 0.8756
vn 0.0000 0.4830 -0.8756
vn -0.9239 0.3827 -0.0000
vn 0.0000 1.0000 0.0000
vn -0.0000 0.3827 0.9239
vn 0.9239 0.3827 0.0000
vn 0.0000 0.6117 -0.7911
vn -0.7911 0.6117 -0.0000
vn 0.7911 0.6117 0.0000
vn 0.8756 0.4830 0.0000
vn -0.0000 0.6117 0.7911
vn -0.0000 0.6786 0.7345
vn 0.0000 0.6786 -0.7345
vn -0.7345 0.6786 -0.0000
vn 0.7071 -0.0000 -0.7071
vn 0.7071 -0.0000 0.7071
vn -0.7071 -0.0000 0.7071
vn -0.7071 0.0000 -0.7071
vn -0.4772 0.7379 0.4772
vn -0.4298 0.7941 -0.4298
vn 0.4298 0.7941 -0.4298
vn 0.4772 0.7379 0.4772
vn 0.6101 0.5054 0.6101
vn -0.5575 0.6151 0.5575
vn 0.6101 0.5054 -0.6101
vn -0.5575 0.6151 -0.5575
vn -0.4298 0.7941 0.4298
vn -0.4772 0.7379 -0.4772
vn 0.4772 0.7379 -0.4772
vn 0.4298 0.7941 0.4298
vn 0.5575 0.6151 0.5575
vn -0.6101 0.5054 0.6101
vn 0.5575 0.6151 -0.5575
vn -0.6101 0.5054 -0.6101
vn 0.0000 -1.0000 0.0000
usemtl Material
s off
f 30//1 22//1 29//1 37//1 2//1
f 67//2 13//2 10//2 47//2
f 25//3 33//3 3//3 34//3 26//3
f 27//4 35//4 4//4 36//4 28//4
f 1//5 31//5 59//5 17//5
f 23//6 31//6 1//6 32//6 24//6
f 13//2 69//2 50//2 10//2
f 43//7 8//7 14//7 68//7
f 7//8 41//8 62//8 20//8
f 38//9 6//9 13//9 67//9
f 14//10 65//10 52//10 12//10
f 46//11 47//11 10//11 16//11 9//11
f 64//12 20//12 11//12 53//12
f 10//11 50//11 51//11 12//11 16//11
f 15//13 66//13 46//13 9//13
f 58//14 19//14 6//14 38//14
f 56//15 21//15 8//15 43//15
f 16//11 12//11 52//11 53//11 11//11
f 6//9 42//9 69//9 13//9
f 21//15 54//15 45//15 8//15
f 20//12 62//12 48//12 11//12
f 61//16 17//16 5//16 40//16
f 40//17 5//17 15//17 63//17
f 63//13 15//13 9//13 49//13
f 9//11 16//11 11//11 48//11 49//11
f 68//10 14//10 12//10 51//10
f 18//18 60//18 41//18 7//18
f 3//19 33//19 60//19 18//19
f 30//20 2//20 19//20 58//20
f 8//7 45//7 65//7 14//7
f 4//21 35//21 54//21 21//21
f 34//19 3//19 18//19 55//19
f 5//17 39//17 66//17 15//17
f 32//5 1//5 17//5 61//5
f 17//16 59//16 39//16 5//16
f 55//18 18//18 7//18 44//18
f 19//14 57//14 42//14 6//14
f 44//8 7//8 20//8 64//8
f 2//20 37//20 57//20 19//20
f 36//21 4//21 21//21 56//21
f 22//22 30//22 31//22 23//22
f 24//23 32//23 33//23 25//23
f 26//24 34//24 35//24 27//24
f 28//25 36//25 37//25 29//25
f 55//26 44//26 45//26 54//26
f 57//27 37//27 36//27 56//27
f 59//28 31//28 30//28 58//28
f 61//29 40//29 41//29 60//29
f 63//30 49//30 48//30 62//30
f 65//31 45//31 44//31 64//31
f 67//32 47//32 46//32 66//32
f 69//33 42//33 43//33 68//33
f 34//34 55//34 54//34 35//34
f 42//35 57//35 56//35 43//35
f 39//36 59//36 58//36 38//36
f 32//37 61//37 60//37 33//37
f 40//38 63//38 62//38 41//38
f 52//39 65//39 64//39 53//39
f 38//40 67//40 66//40 39//40
f 50//41 69//41 68//41 51//41
f 22//42 23//42 24//42 25//42 26//42 27//42 28//42 29//42
