# Blender v2.78 (sub 0) OBJ File: 'Staff.blend'
# www.blender.org
mtllib Staff1Shaft.mtl
o Cylinder
v -0.000000 0.729472 0.023016
v -0.000000 -0.005419 0.023016
v -0.004490 0.729472 0.022574
v -0.004490 -0.005419 0.022574
v -0.008808 0.729472 0.021264
v -0.008808 -0.005419 0.021264
v -0.012787 0.729472 0.019137
v -0.012787 -0.005419 0.019137
v -0.016275 0.729472 0.016275
v -0.016275 -0.005419 0.016275
v -0.019137 0.729472 0.012787
v -0.019137 -0.005419 0.012787
v -0.021264 0.729472 0.008808
v -0.021264 -0.005419 0.008808
v -0.022574 0.729472 0.004490
v -0.022574 -0.005419 0.004490
v -0.023016 0.729472 0.000000
v -0.023016 -0.005419 0.000000
v -0.022574 0.729472 -0.004490
v -0.022574 -0.005419 -0.004490
v -0.021264 0.729472 -0.008808
v -0.021264 -0.005419 -0.008808
v -0.019137 0.729472 -0.012787
v -0.019137 -0.005419 -0.012787
v -0.016275 0.729472 -0.016275
v -0.016275 -0.005419 -0.016275
v -0.012787 0.729472 -0.019137
v -0.012787 -0.005419 -0.019137
v -0.008808 0.729472 -0.021264
v -0.008808 -0.005419 -0.021264
v -0.004490 0.729472 -0.022574
v -0.004490 -0.005419 -0.022574
v 0.000000 0.729472 -0.023016
v 0.000000 -0.005419 -0.023016
v 0.004490 0.729472 -0.022574
v 0.004490 -0.005419 -0.022574
v 0.008808 0.729472 -0.021264
v 0.008808 -0.005419 -0.021264
v 0.012787 0.729472 -0.019137
v 0.012787 -0.005419 -0.019137
v 0.016275 0.729472 -0.016275
v 0.016275 -0.005419 -0.016275
v 0.019137 0.729472 -0.012787
v 0.019137 -0.005419 -0.012787
v 0.021264 0.729472 -0.008808
v 0.021264 -0.005419 -0.008808
v 0.022574 0.729472 -0.004490
v 0.022574 -0.005419 -0.004490
v 0.023016 0.729472 0.000000
v 0.023016 -0.005419 0.000000
v 0.022574 0.729472 0.004490
v 0.022574 -0.005419 0.004490
v 0.021264 0.729472 0.008808
v 0.021264 -0.005419 0.008808
v 0.019137 0.729472 0.012787
v 0.019137 -0.005419 0.012787
v 0.016275 0.729472 0.016275
v 0.016275 -0.005419 0.016275
v 0.012787 0.729472 0.019137
v 0.012787 -0.005419 0.019137
v 0.008808 0.729472 0.021264
v 0.008808 -0.005419 0.021264
v 0.004490 0.729472 0.022574
v 0.004490 -0.005419 0.022574
v -0.000000 0.761234 0.037640
v -0.007343 0.761234 0.036917
v -0.014404 0.761234 0.034775
v -0.020912 0.761234 0.031297
v -0.026616 0.761234 0.026616
v -0.031297 0.761234 0.020912
v -0.034775 0.761234 0.014404
v -0.036917 0.761234 0.007343
v -0.037640 0.761234 -0.000000
v -0.036917 0.761234 -0.007343
v -0.034775 0.761234 -0.014404
v -0.031297 0.761234 -0.020912
v -0.026616 0.761234 -0.026616
v -0.020912 0.761234 -0.031297
v -0.014404 0.761234 -0.034775
v -0.007343 0.761234 -0.036917
v -0.000000 0.761234 -0.037640
v 0.007343 0.761234 -0.036917
v 0.014404 0.761234 -0.034775
v 0.020912 0.761234 -0.031297
v 0.026616 0.761234 -0.026616
v 0.031297 0.761234 -0.020912
v 0.034775 0.761234 -0.014404
v 0.036917 0.761234 -0.007343
v 0.037640 0.761234 0.000000
v 0.036917 0.761234 0.007343
v 0.034775 0.761234 0.014404
v 0.031297 0.761234 0.020912
v 0.026616 0.761234 0.026616
v 0.020912 0.761234 0.031297
v 0.014404 0.761234 0.034775
v 0.007343 0.761234 0.036917
v -0.000000 0.772060 0.069982
v -0.013653 0.772060 0.068637
v -0.026781 0.772060 0.064655
v -0.038880 0.772060 0.058188
v -0.049485 0.772060 0.049485
v -0.058188 0.772060 0.038880
v -0.064655 0.772060 0.026781
v -0.068637 0.772060 0.013653
v -0.069982 0.772060 -0.000000
v -0.068637 0.772060 -0.013653
v -0.064655 0.772060 -0.026781
v -0.058188 0.772060 -0.038880
v -0.049485 0.772060 -0.049485
v -0.038880 0.772060 -0.058188
v -0.026781 0.772060 -0.064655
v -0.013653 0.772060 -0.068637
v -0.000000 0.772060 -0.069982
v 0.013653 0.772060 -0.068637
v 0.026781 0.772060 -0.064655
v 0.038880 0.772060 -0.058188
v 0.049485 0.772060 -0.049485
v 0.058188 0.772060 -0.038880
v 0.064655 0.772060 -0.026781
v 0.068637 0.772060 -0.013653
v 0.069982 0.772060 0.000000
v 0.068637 0.772060 0.013653
v 0.064655 0.772060 0.026781
v 0.058188 0.772060 0.038880
v 0.049485 0.772060 0.049485
v 0.038880 0.772060 0.058188
v 0.026781 0.772060 0.064655
v 0.013653 0.772060 0.068637
v 0.024650 0.894225 0.030496
v 0.018227 0.894225 0.034719
v -0.004134 0.894225 0.038994
v -0.011662 0.894225 0.037438
v -0.030496 0.894225 0.024650
v -0.034719 0.894225 0.018227
v -0.038994 0.894225 -0.004134
v -0.037438 0.894225 -0.011662
v -0.024650 0.894225 -0.030496
v -0.018227 0.894225 -0.034719
v 0.004134 0.894225 -0.038994
v 0.011662 0.894225 -0.037438
v 0.030496 0.894225 -0.024650
v 0.034719 0.894225 -0.018227
v 0.038994 0.894225 0.004134
v 0.037438 0.894225 0.011662
v 0.013258 0.894225 0.016403
v 0.009803 0.894225 0.018674
v -0.002224 0.894225 0.020973
v -0.006273 0.894225 0.020136
v -0.016403 0.894225 0.013258
v -0.018674 0.894225 0.009803
v -0.020973 0.894225 -0.002224
v -0.020136 0.894225 -0.006273
v -0.013258 0.894225 -0.016403
v -0.009803 0.894225 -0.018674
v 0.002224 0.894225 -0.020973
v 0.006272 0.894225 -0.020136
v 0.016403 0.894225 -0.013258
v 0.018674 0.894225 -0.009803
v 0.020973 0.894225 0.002224
v 0.020136 0.894225 0.006273
vn 0.0980 0.0000 -0.9952
vn 0.2903 0.0000 -0.9569
vn 0.4714 0.0000 -0.8819
vn 0.6344 0.0000 -0.7730
vn 0.7730 0.0000 -0.6344
vn 0.8819 0.0000 -0.4714
vn 0.9569 0.0000 -0.2903
vn 0.9952 0.0000 -0.0980
vn 0.9952 0.0000 0.0980
vn 0.9569 0.0000 0.2903
vn 0.8819 0.0000 0.4714
vn 0.7730 0.0000 0.6344
vn 0.6344 0.0000 0.7730
vn 0.4714 0.0000 0.8819
vn 0.2903 0.0000 0.9569
vn 0.0980 0.0000 0.9952
vn -0.0980 0.0000 0.9952
vn -0.2903 0.0000 0.9569
vn -0.4714 0.0000 0.8819
vn -0.6344 0.0000 0.7730
vn -0.7730 0.0000 0.6344
vn -0.8819 0.0000 0.4714
vn -0.9569 0.0000 0.2903
vn -0.9952 0.0000 0.0980
vn -0.9952 0.0000 -0.0980
vn -0.9569 0.0000 -0.2903
vn -0.8819 0.0000 -0.4714
vn -0.7730 0.0000 -0.6344
vn -0.6344 0.0000 -0.7730
vn -0.4714 0.0000 -0.8819
vn 0.0000 1.0000 0.0000
vn -0.2903 0.0000 -0.9569
vn -0.0980 0.0000 -0.9952
vn 0.6445 0.7392 0.1955
vn 0.0000 -1.0000 0.0000
vn -0.3175 0.7392 0.5940
vn -0.5206 0.7392 -0.4273
vn 0.5940 0.7392 -0.3175
vn 0.1955 0.7392 0.6445
vn -0.6703 0.7392 0.0660
vn 0.1955 0.7392 -0.6445
vn 0.5940 0.7392 0.3175
vn -0.4273 0.7392 0.5206
vn -0.4273 0.7392 -0.5206
vn 0.6445 0.7392 -0.1955
vn 0.0660 0.7392 0.6703
vn -0.6703 0.7392 -0.0660
vn 0.3175 0.7392 -0.5940
vn 0.5206 0.7392 0.4273
vn -0.5206 0.7392 0.4273
vn -0.3175 0.7392 -0.5940
vn 0.6703 0.7392 -0.0660
vn -0.0660 0.7392 0.6703
vn -0.6445 0.7392 -0.1955
vn 0.4273 0.7392 -0.5206
vn 0.4273 0.7392 0.5206
vn -0.5940 0.7392 0.3175
vn -0.1955 0.7392 -0.6445
vn 0.6703 0.7392 0.0660
vn -0.1955 0.7392 0.6445
vn -0.5940 0.7392 -0.3175
vn 0.5206 0.7392 -0.4273
vn 0.3175 0.7392 0.5940
vn -0.6445 0.7392 0.1955
vn 0.0660 0.7392 -0.6703
vn -0.0660 0.7392 -0.6703
vn -0.0312 -0.9478 0.3173
vn -0.0925 -0.9478 0.3051
vn -0.1503 -0.9478 0.2812
vn 0.4983 0.1489 0.8541
vn -0.2464 -0.9478 0.2022
vn -0.2812 -0.9478 0.1503
vn -0.3051 -0.9478 0.0925
vn -0.4060 -0.3141 0.8582
vn -0.3173 -0.9478 -0.0312
vn -0.3051 -0.9478 -0.0925
vn -0.2812 -0.9478 -0.1503
vn -0.9251 -0.2915 -0.2434
vn -0.2022 -0.9478 -0.2464
vn -0.1503 -0.9478 -0.2812
vn -0.0925 -0.9478 -0.3051
vn -0.2516 0.1489 0.9563
vn 0.0312 -0.9478 -0.3173
vn 0.0925 -0.9478 -0.3051
vn 0.1503 -0.9478 -0.2812
vn 0.2307 0.3141 -0.9209
vn 0.2464 -0.9478 -0.2022
vn 0.2812 -0.9478 -0.1503
vn 0.3051 -0.9478 -0.0925
vn -0.3198 -0.3141 -0.8939
vn 0.3173 -0.9478 0.0313
vn 0.3051 -0.9478 0.0925
vn 0.2812 -0.9478 0.1503
vn -0.4983 0.1489 -0.8541
vn 0.2022 -0.9478 0.2464
vn 0.1503 -0.9478 0.2812
vn 0.0925 -0.9478 0.3051
vn 0.4880 0.3141 0.8143
vn 0.4820 -0.2915 0.8262
vn -0.2307 0.3141 0.9209
vn 0.2516 0.1489 -0.9563
vn 0.2434 -0.2915 -0.9251
vn 0.8939 -0.3141 -0.3198
vn 0.4060 -0.3141 -0.8582
vn 0.8143 0.3141 -0.4880
vn -0.8541 0.1489 0.4983
vn -0.4820 -0.2915 -0.8262
vn -0.8939 -0.3141 0.3198
vn -0.9209 0.3141 -0.2307
vn -0.2434 -0.2915 0.9251
vn 0.8582 -0.3141 0.4060
vn -0.8143 0.3141 0.4880
vn 0.8541 0.1489 -0.4983
vn 0.8262 -0.2915 -0.4820
vn 0.9209 0.3141 0.2307
vn -0.9563 0.1489 -0.2516
vn -0.8582 -0.3141 -0.4060
vn -0.4880 0.3141 -0.8143
vn -0.8262 -0.2915 0.4820
vn 0.3198 -0.3141 0.8939
vn 0.9563 0.1489 0.2516
vn 0.9251 -0.2915 0.2434
usemtl None
s off
f 1//1 2//1 4//1 3//1
f 3//2 4//2 6//2 5//2
f 5//3 6//3 8//3 7//3
f 7//4 8//4 10//4 9//4
f 9//5 10//5 12//5 11//5
f 11//6 12//6 14//6 13//6
f 13//7 14//7 16//7 15//7
f 15//8 16//8 18//8 17//8
f 17//9 18//9 20//9 19//9
f 19//10 20//10 22//10 21//10
f 21//11 22//11 24//11 23//11
f 23//12 24//12 26//12 25//12
f 25//13 26//13 28//13 27//13
f 27//14 28//14 30//14 29//14
f 29//15 30//15 32//15 31//15
f 31//16 32//16 34//16 33//16
f 33//17 34//17 36//17 35//17
f 35//18 36//18 38//18 37//18
f 37//19 38//19 40//19 39//19
f 39//20 40//20 42//20 41//20
f 41//21 42//21 44//21 43//21
f 43//22 44//22 46//22 45//22
f 45//23 46//23 48//23 47//23
f 47//24 48//24 50//24 49//24
f 49//25 50//25 52//25 51//25
f 51//26 52//26 54//26 53//26
f 53//27 54//27 56//27 55//27
f 55//28 56//28 58//28 57//28
f 57//29 58//29 60//29 59//29
f 59//30 60//30 62//30 61//30
f 4//31 2//31 64//31 62//31 60//31 58//31 56//31 54//31 52//31 50//31 48//31 46//31 44//31 42//31 40//31 38//31 36//31 34//31 32//31 30//31 28//31 26//31 24//31 22//31 20//31 18//31 16//31 14//31 12//31 10//31 8//31 6//31
f 61//32 62//32 64//32 63//32
f 63//33 64//33 2//33 1//33
f 19//34 21//34 107//34 106//34
f 65//35 66//35 67//35 68//35 69//35 70//35 71//35 72//35 73//35 74//35 75//35 76//35 77//35 78//35 79//35 80//35 81//35 82//35 83//35 84//35 85//35 86//35 87//35 88//35 89//35 90//35 91//35 92//35 93//35 94//35 95//35 96//35
f 37//36 39//36 116//36 115//36
f 55//37 57//37 125//37 124//37
f 11//38 13//38 103//38 102//38
f 29//39 31//39 112//39 111//39
f 47//40 49//40 121//40 120//40
f 3//41 5//41 99//41 98//41
f 21//42 23//42 108//42 107//42
f 39//43 41//43 117//43 116//43
f 57//44 59//44 126//44 125//44
f 13//45 15//45 104//45 103//45
f 31//46 33//46 113//46 112//46
f 49//47 51//47 122//47 121//47
f 5//48 7//48 100//48 99//48
f 23//49 25//49 109//49 108//49
f 41//50 43//50 118//50 117//50
f 59//51 61//51 127//51 126//51
f 15//52 17//52 105//52 104//52
f 33//53 35//53 114//53 113//53
f 51//54 53//54 123//54 122//54
f 7//55 9//55 101//55 100//55
f 25//56 27//56 110//56 109//56
f 43//57 45//57 119//57 118//57
f 61//58 63//58 128//58 127//58
f 17//59 19//59 106//59 105//59
f 35//60 37//60 115//60 114//60
f 53//61 55//61 124//61 123//61
f 9//62 11//62 102//62 101//62
f 27//63 29//63 111//63 110//63
f 45//64 47//64 120//64 119//64
f 1//65 3//65 98//65 97//65
f 63//66 1//66 97//66 128//66
f 66//67 65//67 97//67 98//67
f 67//68 66//68 98//68 99//68
f 68//69 67//69 99//69 100//69
f 65//70 96//70 159//70 160//70
f 70//71 69//71 101//71 102//71
f 71//72 70//72 102//72 103//72
f 72//73 71//73 103//73 104//73
f 109//74 77//74 150//74 134//74
f 74//75 73//75 105//75 106//75
f 75//76 74//76 106//76 107//76
f 76//77 75//77 107//77 108//77
f 124//78 125//78 142//78 141//78
f 78//79 77//79 109//79 110//79
f 79//80 78//80 110//80 111//80
f 80//81 79//81 111//81 112//81
f 69//82 68//82 145//82 146//82
f 82//83 81//83 113//83 114//83
f 83//84 82//84 114//84 115//84
f 84//85 83//85 115//85 116//85
f 76//86 108//86 133//86 149//86
f 86//87 85//87 117//87 118//87
f 87//88 86//88 118//88 119//88
f 88//89 87//89 119//89 120//89
f 121//90 89//90 156//90 140//90
f 90//91 89//91 121//91 122//91
f 91//92 90//92 122//92 123//92
f 92//93 91//93 123//93 124//93
f 81//94 80//94 151//94 152//94
f 94//95 93//95 125//95 126//95
f 95//96 94//96 126//96 127//96
f 96//97 95//97 127//97 128//97
f 88//98 120//98 139//98 155//98
f 146//35 145//35 129//35 130//35
f 148//35 147//35 131//35 132//35
f 150//35 149//35 133//35 134//35
f 152//35 151//35 135//35 136//35
f 154//35 153//35 137//35 138//35
f 156//35 155//35 139//35 140//35
f 158//35 157//35 141//35 142//35
f 160//35 159//35 143//35 144//35
f 112//99 113//99 136//99 135//99
f 92//100 124//100 141//100 157//100
f 85//101 84//101 153//101 154//101
f 100//102 101//102 130//102 129//102
f 97//103 65//103 160//103 144//103
f 125//104 93//104 158//104 142//104
f 80//105 112//105 135//105 151//105
f 73//106 72//106 147//106 148//106
f 128//107 97//107 144//107 143//107
f 113//108 81//108 152//108 136//108
f 68//109 100//109 129//109 145//109
f 116//110 117//110 138//110 137//110
f 101//111 69//111 146//111 130//111
f 96//112 128//112 143//112 159//112
f 89//113 88//113 155//113 156//113
f 104//114 105//114 132//114 131//114
f 84//115 116//115 137//115 153//115
f 77//116 76//116 149//116 150//116
f 117//117 85//117 154//117 138//117
f 72//118 104//118 131//118 147//118
f 120//119 121//119 140//119 139//119
f 105//120 73//120 148//120 132//120
f 93//121 92//121 157//121 158//121
f 108//122 109//122 134//122 133//122
