# Blender v2.78 (sub 0) OBJ File: 'Staff.blend'
# www.blender.org
mtllib Staff.mtl
o Icosphere
v -0.002129 1.155948 0.001133
v -0.052840 1.049220 -0.036012
v 0.017241 1.049220 -0.058970
v 0.060553 1.049219 0.001133
v 0.017241 1.049220 0.061237
v -0.052840 1.049220 0.038279
v -0.021498 0.961548 -0.058970
v 0.048582 0.961548 -0.036012
v 0.048582 0.961548 0.038279
v -0.021498 0.961548 0.061237
v -0.064811 0.961549 0.001133
v -0.002129 0.907365 0.001133
v 0.009256 1.113802 -0.034194
v -0.031936 1.113802 -0.020700
v -0.020551 1.056916 -0.056028
v -0.061743 1.056916 0.001133
v -0.031936 1.113802 0.022967
v 0.034715 1.113801 0.001133
v 0.046100 1.056916 -0.034195
v 0.009256 1.113802 0.036461
v 0.046100 1.056916 0.036461
v -0.020551 1.056916 0.058295
v -0.068780 1.005384 -0.020700
v -0.068780 1.005384 0.022967
v -0.002129 1.005384 -0.069523
v -0.043321 1.005384 -0.056029
v 0.064522 1.005384 -0.020700
v 0.039064 1.005384 -0.056029
v 0.039064 1.005384 0.058296
v 0.064522 1.005384 0.022967
v -0.043321 1.005384 0.058296
v -0.002129 1.005384 0.071790
v -0.050358 0.953852 -0.034195
v 0.016293 0.953852 -0.056028
v 0.057485 0.953852 0.001133
v 0.016293 0.953852 0.058295
v -0.050358 0.953852 0.036461
v -0.013514 0.922004 -0.034194
v -0.038972 0.922004 0.001133
v 0.027678 0.922004 -0.020700
v 0.027678 0.922004 0.022967
v -0.013514 0.922004 0.036461
vn 0.2535 -0.5803 0.7740
vn 0.8894 -0.3559 0.2869
vn -0.6618 -0.5785 0.4769
vn -0.6618 -0.5785 -0.4769
vn 0.2535 -0.5803 -0.7740
vn 0.9307 -0.2429 0.2734
vn 0.0256 -0.2447 0.9693
vn -0.9152 -0.2430 0.3215
vn -0.5934 -0.2440 -0.7670
vn 0.5523 -0.2441 -0.7971
vn 0.8080 -0.0904 0.5822
vn -0.3100 -0.0908 0.9464
vn -0.9959 -0.0902 0.0000
vn -0.3100 -0.0908 -0.9464
vn 0.8080 -0.0904 -0.5822
vn 0.4632 0.5358 0.7060
vn -0.5335 0.5355 0.6547
vn -0.7904 0.5340 -0.3001
vn 0.0437 0.5368 -0.8426
vn 0.8170 0.5338 -0.2180
vn 0.3568 0.8981 -0.2571
vn 0.5916 0.6844 -0.4263
vn 0.4632 0.5358 -0.7060
vn -0.1364 0.8989 -0.4164
vn -0.2265 0.6860 -0.6914
vn -0.5335 0.5355 -0.6547
vn -0.4408 0.8976 0.0000
vn -0.7301 0.6833 0.0000
vn -0.7904 0.5340 0.3001
vn -0.1364 0.8989 0.4164
vn -0.2265 0.6860 0.6914
vn 0.0437 0.5368 0.8426
vn 0.3568 0.8981 0.2571
vn 0.5916 0.6844 0.4263
vn 0.8170 0.5338 0.2180
vn 0.9152 0.2430 -0.3215
vn 0.8038 0.1357 -0.5792
vn 0.5934 0.2440 -0.7670
vn -0.0256 0.2447 -0.9693
vn -0.3084 0.1363 -0.9414
vn -0.5523 0.2441 -0.7971
vn -0.9307 0.2429 -0.2734
vn -0.9908 0.1353 0.0000
vn -0.9307 0.2429 0.2734
vn -0.5523 0.2441 0.7971
vn -0.3084 0.1363 0.9414
vn -0.0256 0.2447 0.9693
vn 0.5934 0.2440 0.7670
vn 0.8038 0.1357 0.5792
vn 0.9152 0.2430 0.3215
vn 0.3100 0.0908 -0.9464
vn 0.3084 -0.1363 -0.9414
vn 0.0256 -0.2447 -0.9693
vn -0.8080 0.0904 -0.5822
vn -0.8038 -0.1357 -0.5792
vn -0.9152 -0.2430 -0.3215
vn -0.8080 0.0904 0.5822
vn -0.8038 -0.1357 0.5792
vn -0.5934 -0.2440 0.7670
vn 0.3100 0.0908 0.9464
vn 0.3084 -0.1363 0.9414
vn 0.5523 -0.2441 0.7971
vn 0.9959 0.0902 0.0000
vn 0.9908 -0.1353 0.0000
vn 0.9307 -0.2429 -0.2734
vn 0.5521 -0.3573 -0.7533
vn 0.2753 -0.4668 -0.8404
vn -0.0003 -0.3582 -0.9336
vn -0.5517 -0.3573 -0.7536
vn -0.7182 -0.4652 -0.5175
vn -0.8896 -0.3559 -0.2864
vn -0.8896 -0.3559 0.2864
vn -0.7182 -0.4652 0.5175
vn -0.5517 -0.3573 0.7536
vn 0.8894 -0.3559 -0.2869
vn 0.8858 -0.4641 0.0000
vn 0.8164 -0.5774 0.0000
vn -0.0003 -0.3582 0.9336
vn 0.2753 -0.4668 0.8404
vn 0.5521 -0.3573 0.7533
usemtl None
s off
f 1//1 14//1 13//1
f 2//2 14//2 16//2
f 1//3 13//3 18//3
f 1//4 18//4 20//4
f 1//5 20//5 17//5
f 2//6 16//6 23//6
f 3//7 15//7 25//7
f 4//8 19//8 27//8
f 5//9 21//9 29//9
f 6//10 22//10 31//10
f 2//11 23//11 26//11
f 3//12 25//12 28//12
f 4//13 27//13 30//13
f 5//14 29//14 32//14
f 6//15 31//15 24//15
f 7//16 33//16 38//16
f 8//17 34//17 40//17
f 9//18 35//18 41//18
f 10//19 36//19 42//19
f 11//20 37//20 39//20
f 39//21 42//21 12//21
f 39//22 37//22 42//22
f 37//23 10//23 42//23
f 42//24 41//24 12//24
f 42//25 36//25 41//25
f 36//26 9//26 41//26
f 41//27 40//27 12//27
f 41//28 35//28 40//28
f 35//29 8//29 40//29
f 40//30 38//30 12//30
f 40//31 34//31 38//31
f 34//32 7//32 38//32
f 38//33 39//33 12//33
f 38//34 33//34 39//34
f 33//35 11//35 39//35
f 24//36 37//36 11//36
f 24//37 31//37 37//37
f 31//38 10//38 37//38
f 32//39 36//39 10//39
f 32//40 29//40 36//40
f 29//41 9//41 36//41
f 30//42 35//42 9//42
f 30//43 27//43 35//43
f 27//44 8//44 35//44
f 28//45 34//45 8//45
f 28//46 25//46 34//46
f 25//47 7//47 34//47
f 26//48 33//48 7//48
f 26//49 23//49 33//49
f 23//50 11//50 33//50
f 31//51 32//51 10//51
f 31//52 22//52 32//52
f 22//53 5//53 32//53
f 29//54 30//54 9//54
f 29//55 21//55 30//55
f 21//56 4//56 30//56
f 27//57 28//57 8//57
f 27//58 19//58 28//58
f 19//59 3//59 28//59
f 25//60 26//60 7//60
f 25//61 15//61 26//61
f 15//62 2//62 26//62
f 23//63 24//63 11//63
f 23//64 16//64 24//64
f 16//65 6//65 24//65
f 17//66 22//66 6//66
f 17//67 20//67 22//67
f 20//68 5//68 22//68
f 20//69 21//69 5//69
f 20//70 18//70 21//70
f 18//71 4//71 21//71
f 18//72 19//72 4//72
f 18//73 13//73 19//73
f 13//74 3//74 19//74
f 16//75 17//75 6//75
f 16//76 14//76 17//76
f 14//77 1//77 17//77
f 13//78 15//78 3//78
f 13//79 14//79 15//79
f 14//80 2//80 15//80
o Cylinder
v -0.000000 0.729472 0.023016
v -0.000000 -0.005419 0.023016
v -0.004490 0.729472 0.022574
v -0.004490 -0.005419 0.022574
v -0.008808 0.729472 0.021264
v -0.008808 -0.005419 0.021264
v -0.012787 0.729472 0.019137
v -0.012787 -0.005419 0.019137
v -0.016275 0.729472 0.016275
v -0.016275 -0.005419 0.016275
v -0.019137 0.729472 0.012787
v -0.019137 -0.005419 0.012787
v -0.021264 0.729472 0.008808
v -0.021264 -0.005419 0.008808
v -0.022574 0.729472 0.004490
v -0.022574 -0.005419 0.004490
v -0.023016 0.729472 0.000000
v -0.023016 -0.005419 0.000000
v -0.022574 0.729472 -0.004490
v -0.022574 -0.005419 -0.004490
v -0.021264 0.729472 -0.008808
v -0.021264 -0.005419 -0.008808
v -0.019137 0.729472 -0.012787
v -0.019137 -0.005419 -0.012787
v -0.016275 0.729472 -0.016275
v -0.016275 -0.005419 -0.016275
v -0.012787 0.729472 -0.019137
v -0.012787 -0.005419 -0.019137
v -0.008808 0.729472 -0.021264
v -0.008808 -0.005419 -0.021264
v -0.004490 0.729472 -0.022574
v -0.004490 -0.005419 -0.022574
v 0.000000 0.729472 -0.023016
v 0.000000 -0.005419 -0.023016
v 0.004490 0.729472 -0.022574
v 0.004490 -0.005419 -0.022574
v 0.008808 0.729472 -0.021264
v 0.008808 -0.005419 -0.021264
v 0.012787 0.729472 -0.019137
v 0.012787 -0.005419 -0.019137
v 0.016275 0.729472 -0.016275
v 0.016275 -0.005419 -0.016275
v 0.019137 0.729472 -0.012787
v 0.019137 -0.005419 -0.012787
v 0.021264 0.729472 -0.008808
v 0.021264 -0.005419 -0.008808
v 0.022574 0.729472 -0.004490
v 0.022574 -0.005419 -0.004490
v 0.023016 0.729472 0.000000
v 0.023016 -0.005419 0.000000
v 0.022574 0.729472 0.004490
v 0.022574 -0.005419 0.004490
v 0.021264 0.729472 0.008808
v 0.021264 -0.005419 0.008808
v 0.019137 0.729472 0.012787
v 0.019137 -0.005419 0.012787
v 0.016275 0.729472 0.016275
v 0.016275 -0.005419 0.016275
v 0.012787 0.729472 0.019137
v 0.012787 -0.005419 0.019137
v 0.008808 0.729472 0.021264
v 0.008808 -0.005419 0.021264
v 0.004490 0.729472 0.022574
v 0.004490 -0.005419 0.022574
v -0.000000 0.761234 0.037640
v -0.007343 0.761234 0.036917
v -0.014404 0.761234 0.034775
v -0.020912 0.761234 0.031297
v -0.026616 0.761234 0.026616
v -0.031297 0.761234 0.020912
v -0.034775 0.761234 0.014404
v -0.036917 0.761234 0.007343
v -0.037640 0.761234 -0.000000
v -0.036917 0.761234 -0.007343
v -0.034775 0.761234 -0.014404
v -0.031297 0.761234 -0.020912
v -0.026616 0.761234 -0.026616
v -0.020912 0.761234 -0.031297
v -0.014404 0.761234 -0.034775
v -0.007343 0.761234 -0.036917
v -0.000000 0.761234 -0.037640
v 0.007343 0.761234 -0.036917
v 0.014404 0.761234 -0.034775
v 0.020912 0.761234 -0.031297
v 0.026616 0.761234 -0.026616
v 0.031297 0.761234 -0.020912
v 0.034775 0.761234 -0.014404
v 0.036917 0.761234 -0.007343
v 0.037640 0.761234 0.000000
v 0.036917 0.761234 0.007343
v 0.034775 0.761234 0.014404
v 0.031297 0.761234 0.020912
v 0.026616 0.761234 0.026616
v 0.020912 0.761234 0.031297
v 0.014404 0.761234 0.034775
v 0.007343 0.761234 0.036917
v -0.000000 0.772060 0.069982
v -0.013653 0.772060 0.068637
v -0.026781 0.772060 0.064655
v -0.038880 0.772060 0.058188
v -0.049485 0.772060 0.049485
v -0.058188 0.772060 0.038880
v -0.064655 0.772060 0.026781
v -0.068637 0.772060 0.013653
v -0.069982 0.772060 -0.000000
v -0.068637 0.772060 -0.013653
v -0.064655 0.772060 -0.026781
v -0.058188 0.772060 -0.038880
v -0.049485 0.772060 -0.049485
v -0.038880 0.772060 -0.058188
v -0.026781 0.772060 -0.064655
v -0.013653 0.772060 -0.068637
v -0.000000 0.772060 -0.069982
v 0.013653 0.772060 -0.068637
v 0.026781 0.772060 -0.064655
v 0.038880 0.772060 -0.058188
v 0.049485 0.772060 -0.049485
v 0.058188 0.772060 -0.038880
v 0.064655 0.772060 -0.026781
v 0.068637 0.772060 -0.013653
v 0.069982 0.772060 0.000000
v 0.068637 0.772060 0.013653
v 0.064655 0.772060 0.026781
v 0.058188 0.772060 0.038880
v 0.049485 0.772060 0.049485
v 0.038880 0.772060 0.058188
v 0.026781 0.772060 0.064655
v 0.013653 0.772060 0.068637
v 0.024650 0.894225 0.030496
v 0.018227 0.894225 0.034719
v -0.004134 0.894225 0.038994
v -0.011662 0.894225 0.037438
v -0.030496 0.894225 0.024650
v -0.034719 0.894225 0.018227
v -0.038994 0.894225 -0.004134
v -0.037438 0.894225 -0.011662
v -0.024650 0.894225 -0.030496
v -0.018227 0.894225 -0.034719
v 0.004134 0.894225 -0.038994
v 0.011662 0.894225 -0.037438
v 0.030496 0.894225 -0.024650
v 0.034719 0.894225 -0.018227
v 0.038994 0.894225 0.004134
v 0.037438 0.894225 0.011662
v 0.013258 0.894225 0.016403
v 0.009803 0.894225 0.018674
v -0.002224 0.894225 0.020973
v -0.006273 0.894225 0.020136
v -0.016403 0.894225 0.013258
v -0.018674 0.894225 0.009803
v -0.020973 0.894225 -0.002224
v -0.020136 0.894225 -0.006273
v -0.013258 0.894225 -0.016403
v -0.009803 0.894225 -0.018674
v 0.002224 0.894225 -0.020973
v 0.006272 0.894225 -0.020136
v 0.016403 0.894225 -0.013258
v 0.018674 0.894225 -0.009803
v 0.020973 0.894225 0.002224
v 0.020136 0.894225 0.006273
vn 0.0980 0.0000 -0.9952
vn 0.2903 0.0000 -0.9569
vn 0.4714 0.0000 -0.8819
vn 0.6344 0.0000 -0.7730
vn 0.7730 0.0000 -0.6344
vn 0.8819 0.0000 -0.4714
vn 0.9569 0.0000 -0.2903
vn 0.9952 0.0000 -0.0980
vn 0.9952 0.0000 0.0980
vn 0.9569 0.0000 0.2903
vn 0.8819 0.0000 0.4714
vn 0.7730 0.0000 0.6344
vn 0.6344 0.0000 0.7730
vn 0.4714 0.0000 0.8819
vn 0.2903 0.0000 0.9569
vn 0.0980 0.0000 0.9952
vn -0.0980 0.0000 0.9952
vn -0.2903 0.0000 0.9569
vn -0.4714 0.0000 0.8819
vn -0.6344 0.0000 0.7730
vn -0.7730 0.0000 0.6344
vn -0.8819 0.0000 0.4714
vn -0.9569 0.0000 0.2903
vn -0.9952 0.0000 0.0980
vn -0.9952 0.0000 -0.0980
vn -0.9569 0.0000 -0.2903
vn -0.8819 0.0000 -0.4714
vn -0.7730 0.0000 -0.6344
vn -0.6344 0.0000 -0.7730
vn -0.4714 0.0000 -0.8819
vn 0.0000 1.0000 0.0000
vn -0.2903 0.0000 -0.9569
vn -0.0980 0.0000 -0.9952
vn 0.6445 0.7392 0.1955
vn 0.0000 -1.0000 0.0000
vn -0.3175 0.7392 0.5940
vn -0.5206 0.7392 -0.4273
vn 0.5940 0.7392 -0.3175
vn 0.1955 0.7392 0.6445
vn -0.6703 0.7392 0.0660
vn 0.1955 0.7392 -0.6445
vn 0.5940 0.7392 0.3175
vn -0.4273 0.7392 0.5206
vn -0.4273 0.7392 -0.5206
vn 0.6445 0.7392 -0.1955
vn 0.0660 0.7392 0.6703
vn -0.6703 0.7392 -0.0660
vn 0.3175 0.7392 -0.5940
vn 0.5206 0.7392 0.4273
vn -0.5206 0.7392 0.4273
vn -0.3175 0.7392 -0.5940
vn 0.6703 0.7392 -0.0660
vn -0.0660 0.7392 0.6703
vn -0.6445 0.7392 -0.1955
vn 0.4273 0.7392 -0.5206
vn 0.4273 0.7392 0.5206
vn -0.5940 0.7392 0.3175
vn -0.1955 0.7392 -0.6445
vn 0.6703 0.7392 0.0660
vn -0.1955 0.7392 0.6445
vn -0.5940 0.7392 -0.3175
vn 0.5206 0.7392 -0.4273
vn 0.3175 0.7392 0.5940
vn -0.6445 0.7392 0.1955
vn 0.0660 0.7392 -0.6703
vn -0.0660 0.7392 -0.6703
vn -0.0312 -0.9478 0.3173
vn -0.0925 -0.9478 0.3051
vn -0.1503 -0.9478 0.2812
vn 0.4983 0.1489 0.8541
vn -0.2464 -0.9478 0.2022
vn -0.2812 -0.9478 0.1503
vn -0.3051 -0.9478 0.0925
vn -0.4060 -0.3141 0.8582
vn -0.3173 -0.9478 -0.0312
vn -0.3051 -0.9478 -0.0925
vn -0.2812 -0.9478 -0.1503
vn -0.9251 -0.2915 -0.2434
vn -0.2022 -0.9478 -0.2464
vn -0.1503 -0.9478 -0.2812
vn -0.0925 -0.9478 -0.3051
vn -0.2516 0.1489 0.9563
vn 0.0312 -0.9478 -0.3173
vn 0.0925 -0.9478 -0.3051
vn 0.1503 -0.9478 -0.2812
vn 0.2307 0.3141 -0.9209
vn 0.2464 -0.9478 -0.2022
vn 0.2812 -0.9478 -0.1503
vn 0.3051 -0.9478 -0.0925
vn -0.3198 -0.3141 -0.8939
vn 0.3173 -0.9478 0.0313
vn 0.3051 -0.9478 0.0925
vn 0.2812 -0.9478 0.1503
vn -0.4983 0.1489 -0.8541
vn 0.2022 -0.9478 0.2464
vn 0.1503 -0.9478 0.2812
vn 0.0925 -0.9478 0.3051
vn 0.4880 0.3141 0.8143
vn 0.4820 -0.2915 0.8262
vn -0.2307 0.3141 0.9209
vn 0.2516 0.1489 -0.9563
vn 0.2434 -0.2915 -0.9251
vn 0.8939 -0.3141 -0.3198
vn 0.4060 -0.3141 -0.8582
vn 0.8143 0.3141 -0.4880
vn -0.8541 0.1489 0.4983
vn -0.4820 -0.2915 -0.8262
vn -0.8939 -0.3141 0.3198
vn -0.9209 0.3141 -0.2307
vn -0.2434 -0.2915 0.9251
vn 0.8582 -0.3141 0.4060
vn -0.8143 0.3141 0.4880
vn 0.8541 0.1489 -0.4983
vn 0.8262 -0.2915 -0.4820
vn 0.9209 0.3141 0.2307
vn -0.9563 0.1489 -0.2516
vn -0.8582 -0.3141 -0.4060
vn -0.4880 0.3141 -0.8143
vn -0.8262 -0.2915 0.4820
vn 0.3198 -0.3141 0.8939
vn 0.9563 0.1489 0.2516
vn 0.9251 -0.2915 0.2434
usemtl None
s off
f 43//81 44//81 46//81 45//81
f 45//82 46//82 48//82 47//82
f 47//83 48//83 50//83 49//83
f 49//84 50//84 52//84 51//84
f 51//85 52//85 54//85 53//85
f 53//86 54//86 56//86 55//86
f 55//87 56//87 58//87 57//87
f 57//88 58//88 60//88 59//88
f 59//89 60//89 62//89 61//89
f 61//90 62//90 64//90 63//90
f 63//91 64//91 66//91 65//91
f 65//92 66//92 68//92 67//92
f 67//93 68//93 70//93 69//93
f 69//94 70//94 72//94 71//94
f 71//95 72//95 74//95 73//95
f 73//96 74//96 76//96 75//96
f 75//97 76//97 78//97 77//97
f 77//98 78//98 80//98 79//98
f 79//99 80//99 82//99 81//99
f 81//100 82//100 84//100 83//100
f 83//101 84//101 86//101 85//101
f 85//102 86//102 88//102 87//102
f 87//103 88//103 90//103 89//103
f 89//104 90//104 92//104 91//104
f 91//105 92//105 94//105 93//105
f 93//106 94//106 96//106 95//106
f 95//107 96//107 98//107 97//107
f 97//108 98//108 100//108 99//108
f 99//109 100//109 102//109 101//109
f 101//110 102//110 104//110 103//110
f 46//111 44//111 106//111 104//111 102//111 100//111 98//111 96//111 94//111 92//111 90//111 88//111 86//111 84//111 82//111 80//111 78//111 76//111 74//111 72//111 70//111 68//111 66//111 64//111 62//111 60//111 58//111 56//111 54//111 52//111 50//111 48//111
f 103//112 104//112 106//112 105//112
f 105//113 106//113 44//113 43//113
f 61//114 63//114 149//114 148//114
f 107//115 108//115 109//115 110//115 111//115 112//115 113//115 114//115 115//115 116//115 117//115 118//115 119//115 120//115 121//115 122//115 123//115 124//115 125//115 126//115 127//115 128//115 129//115 130//115 131//115 132//115 133//115 134//115 135//115 136//115 137//115 138//115
f 79//116 81//116 158//116 157//116
f 97//117 99//117 167//117 166//117
f 53//118 55//118 145//118 144//118
f 71//119 73//119 154//119 153//119
f 89//120 91//120 163//120 162//120
f 45//121 47//121 141//121 140//121
f 63//122 65//122 150//122 149//122
f 81//123 83//123 159//123 158//123
f 99//124 101//124 168//124 167//124
f 55//125 57//125 146//125 145//125
f 73//126 75//126 155//126 154//126
f 91//127 93//127 164//127 163//127
f 47//128 49//128 142//128 141//128
f 65//129 67//129 151//129 150//129
f 83//130 85//130 160//130 159//130
f 101//131 103//131 169//131 168//131
f 57//132 59//132 147//132 146//132
f 75//133 77//133 156//133 155//133
f 93//134 95//134 165//134 164//134
f 49//135 51//135 143//135 142//135
f 67//136 69//136 152//136 151//136
f 85//137 87//137 161//137 160//137
f 103//138 105//138 170//138 169//138
f 59//139 61//139 148//139 147//139
f 77//140 79//140 157//140 156//140
f 95//141 97//141 166//141 165//141
f 51//142 53//142 144//142 143//142
f 69//143 71//143 153//143 152//143
f 87//144 89//144 162//144 161//144
f 43//145 45//145 140//145 139//145
f 105//146 43//146 139//146 170//146
f 108//147 107//147 139//147 140//147
f 109//148 108//148 140//148 141//148
f 110//149 109//149 141//149 142//149
f 107//150 138//150 201//150 202//150
f 112//151 111//151 143//151 144//151
f 113//152 112//152 144//152 145//152
f 114//153 113//153 145//153 146//153
f 151//154 119//154 192//154 176//154
f 116//155 115//155 147//155 148//155
f 117//156 116//156 148//156 149//156
f 118//157 117//157 149//157 150//157
f 166//158 167//158 184//158 183//158
f 120//159 119//159 151//159 152//159
f 121//160 120//160 152//160 153//160
f 122//161 121//161 153//161 154//161
f 111//162 110//162 187//162 188//162
f 124//163 123//163 155//163 156//163
f 125//164 124//164 156//164 157//164
f 126//165 125//165 157//165 158//165
f 118//166 150//166 175//166 191//166
f 128//167 127//167 159//167 160//167
f 129//168 128//168 160//168 161//168
f 130//169 129//169 161//169 162//169
f 163//170 131//170 198//170 182//170
f 132//171 131//171 163//171 164//171
f 133//172 132//172 164//172 165//172
f 134//173 133//173 165//173 166//173
f 123//174 122//174 193//174 194//174
f 136//175 135//175 167//175 168//175
f 137//176 136//176 168//176 169//176
f 138//177 137//177 169//177 170//177
f 130//178 162//178 181//178 197//178
f 188//115 187//115 171//115 172//115
f 190//115 189//115 173//115 174//115
f 192//115 191//115 175//115 176//115
f 194//115 193//115 177//115 178//115
f 196//115 195//115 179//115 180//115
f 198//115 197//115 181//115 182//115
f 200//115 199//115 183//115 184//115
f 202//115 201//115 185//115 186//115
f 154//179 155//179 178//179 177//179
f 134//180 166//180 183//180 199//180
f 127//181 126//181 195//181 196//181
f 142//182 143//182 172//182 171//182
f 139//183 107//183 202//183 186//183
f 167//184 135//184 200//184 184//184
f 122//185 154//185 177//185 193//185
f 115//186 114//186 189//186 190//186
f 170//187 139//187 186//187 185//187
f 155//188 123//188 194//188 178//188
f 110//189 142//189 171//189 187//189
f 158//190 159//190 180//190 179//190
f 143//191 111//191 188//191 172//191
f 138//192 170//192 185//192 201//192
f 131//193 130//193 197//193 198//193
f 146//194 147//194 174//194 173//194
f 126//195 158//195 179//195 195//195
f 119//196 118//196 191//196 192//196
f 159//197 127//197 196//197 180//197
f 114//198 146//198 173//198 189//198
f 162//199 163//199 182//199 181//199
f 147//200 115//200 190//200 174//200
f 135//201 134//201 199//201 200//201
f 150//202 151//202 176//202 175//202
