# Blender v2.78 (sub 0) OBJ File: 'StaffHead2.blend'
# www.blender.org
mtllib StaffHead2.mtl
o Torus
v 0.192252 0.000000 0.000000
v 0.189325 0.014714 0.000000
v 0.180990 0.027188 0.000000
v 0.168515 0.035523 0.000000
v 0.153801 0.038450 0.000000
v 0.139087 0.035523 0.000000
v 0.126613 0.027188 0.000000
v 0.118278 0.014714 0.000000
v 0.115351 0.000000 0.000000
v 0.118278 -0.014714 0.000000
v 0.126613 -0.027188 0.000000
v 0.139087 -0.035523 0.000000
v 0.153801 -0.038450 0.000000
v 0.168515 -0.035523 0.000000
v 0.180990 -0.027188 0.000000
v 0.189325 -0.014714 0.000000
v 0.177617 0.000000 -0.073571
v 0.174913 0.014714 -0.072451
v 0.167213 0.027188 -0.069262
v 0.155688 0.035523 -0.064488
v 0.142094 0.038450 -0.058857
v 0.128500 0.035523 -0.053226
v 0.116975 0.027188 -0.048453
v 0.109274 0.014714 -0.045263
v 0.106570 0.000000 -0.044143
v 0.109274 -0.014714 -0.045263
v 0.116975 -0.027188 -0.048453
v 0.128500 -0.035523 -0.053226
v 0.142094 -0.038450 -0.058857
v 0.155688 -0.035523 -0.064488
v 0.167213 -0.027188 -0.069262
v 0.174913 -0.014714 -0.072451
v 0.135942 0.000000 -0.135942
v 0.133873 0.014714 -0.133873
v 0.127979 0.027188 -0.127979
v 0.119158 0.035523 -0.119158
v 0.108754 0.038450 -0.108754
v 0.098349 0.035523 -0.098349
v 0.089529 0.027188 -0.089529
v 0.083635 0.014714 -0.083635
v 0.081565 0.000000 -0.081565
v 0.083635 -0.014714 -0.083635
v 0.089529 -0.027188 -0.089529
v 0.098349 -0.035523 -0.098349
v 0.108754 -0.038450 -0.108754
v 0.119158 -0.035523 -0.119158
v 0.127979 -0.027188 -0.127979
v 0.133873 -0.014714 -0.133873
v 0.073572 0.000000 -0.177617
v 0.072451 0.014714 -0.174913
v 0.069262 0.027188 -0.167213
v 0.064488 0.035523 -0.155688
v 0.058857 0.038450 -0.142094
v 0.053226 0.035523 -0.128500
v 0.048453 0.027188 -0.116975
v 0.045263 0.014714 -0.109274
v 0.044143 0.000000 -0.106570
v 0.045263 -0.014714 -0.109274
v 0.048453 -0.027188 -0.116975
v 0.053226 -0.035523 -0.128500
v 0.058857 -0.038450 -0.142094
v 0.064488 -0.035523 -0.155688
v 0.069262 -0.027188 -0.167213
v 0.072451 -0.014714 -0.174913
v 0.000000 0.000000 -0.192252
v 0.000000 0.014714 -0.189325
v 0.000000 0.027188 -0.180990
v 0.000000 0.035523 -0.168515
v 0.000000 0.038450 -0.153801
v 0.000000 0.035523 -0.139087
v 0.000000 0.027188 -0.126613
v 0.000000 0.014714 -0.118278
v 0.000000 0.000000 -0.115351
v 0.000000 -0.014714 -0.118278
v 0.000000 -0.027188 -0.126613
v 0.000000 -0.035523 -0.139087
v 0.000000 -0.038450 -0.153801
v 0.000000 -0.035523 -0.168515
v 0.000000 -0.027188 -0.180990
v 0.000000 -0.014714 -0.189325
v -0.073571 0.000000 -0.177617
v -0.072451 0.014714 -0.174913
v -0.069262 0.027188 -0.167213
v -0.064488 0.035523 -0.155688
v -0.058857 0.038450 -0.142094
v -0.053226 0.035523 -0.128500
v -0.048453 0.027188 -0.116975
v -0.045263 0.014714 -0.109274
v -0.044143 0.000000 -0.106570
v -0.045263 -0.014714 -0.109274
v -0.048453 -0.027188 -0.116975
v -0.053226 -0.035523 -0.128500
v -0.058857 -0.038450 -0.142094
v -0.064488 -0.035523 -0.155688
v -0.069262 -0.027188 -0.167213
v -0.072451 -0.014714 -0.174913
v -0.135942 0.000000 -0.135942
v -0.133873 0.014714 -0.133873
v -0.127979 0.027188 -0.127979
v -0.119158 0.035523 -0.119158
v -0.108754 0.038450 -0.108754
v -0.098349 0.035523 -0.098349
v -0.089529 0.027188 -0.089529
v -0.083635 0.014714 -0.083635
v -0.081565 0.000000 -0.081565
v -0.083635 -0.014714 -0.083635
v -0.089529 -0.027188 -0.089529
v -0.098349 -0.035523 -0.098349
v -0.108754 -0.038450 -0.108754
v -0.119158 -0.035523 -0.119158
v -0.127979 -0.027188 -0.127979
v -0.133873 -0.014714 -0.133873
v -0.177617 0.000000 -0.073571
v -0.174913 0.014714 -0.072451
v -0.167213 0.027188 -0.069262
v -0.155688 0.035523 -0.064488
v -0.142094 0.038450 -0.058857
v -0.128500 0.035523 -0.053226
v -0.116975 0.027188 -0.048453
v -0.109274 0.014714 -0.045263
v -0.106570 0.000000 -0.044143
v -0.109274 -0.014714 -0.045263
v -0.116975 -0.027188 -0.048453
v -0.128500 -0.035523 -0.053226
v -0.142094 -0.038450 -0.058857
v -0.155688 -0.035523 -0.064488
v -0.167213 -0.027188 -0.069262
v -0.174913 -0.014714 -0.072451
v -0.192252 0.000000 -0.000000
v -0.189325 0.014714 -0.000000
v -0.180990 0.027188 -0.000000
v -0.168515 0.035523 -0.000000
v -0.153801 0.038450 -0.000000
v -0.139087 0.035523 -0.000000
v -0.126613 0.027188 -0.000000
v -0.118278 0.014714 -0.000000
v -0.115351 0.000000 -0.000000
v -0.118278 -0.014714 -0.000000
v -0.126613 -0.027188 -0.000000
v -0.139087 -0.035523 -0.000000
v -0.153801 -0.038450 -0.000000
v -0.168515 -0.035523 -0.000000
v -0.180990 -0.027188 -0.000000
v -0.189325 -0.014714 -0.000000
v -0.177617 0.000000 0.073571
v -0.174913 0.014714 0.072451
v -0.167213 0.027188 0.069262
v -0.155688 0.035523 0.064488
v -0.142094 0.038450 0.058857
v -0.128500 0.035523 0.053226
v -0.116975 0.027188 0.048453
v -0.109274 0.014714 0.045263
v -0.106570 0.000000 0.044143
v -0.109274 -0.014714 0.045263
v -0.116975 -0.027188 0.048453
v -0.128500 -0.035523 0.053226
v -0.142094 -0.038450 0.058857
v -0.155688 -0.035523 0.064488
v -0.167213 -0.027188 0.069262
v -0.174913 -0.014714 0.072451
v -0.135942 0.000000 0.135942
v -0.133873 0.014714 0.133873
v -0.127979 0.027188 0.127979
v -0.119158 0.035523 0.119158
v -0.108754 0.038450 0.108754
v -0.098349 0.035523 0.098349
v -0.089529 0.027188 0.089529
v -0.083635 0.014714 0.083635
v -0.081565 0.000000 0.081565
v -0.083635 -0.014714 0.083635
v -0.089529 -0.027188 0.089529
v -0.098349 -0.035523 0.098349
v -0.108754 -0.038450 0.108754
v -0.119158 -0.035523 0.119158
v -0.127979 -0.027188 0.127979
v -0.133873 -0.014714 0.133873
v -0.073571 0.000000 0.177617
v -0.072451 0.014714 0.174913
v -0.069262 0.027188 0.167213
v -0.064488 0.035523 0.155688
v -0.058857 0.038450 0.142094
v -0.053226 0.035523 0.128500
v -0.048453 0.027188 0.116975
v -0.045263 0.014714 0.109274
v -0.044143 0.000000 0.106570
v -0.045263 -0.014714 0.109274
v -0.048453 -0.027188 0.116975
v -0.053226 -0.035523 0.128500
v -0.058857 -0.038450 0.142094
v -0.064488 -0.035523 0.155688
v -0.069262 -0.027188 0.167213
v -0.072451 -0.014714 0.174913
v 0.000000 0.000000 0.192252
v 0.000000 0.014714 0.189325
v 0.000000 0.027188 0.180990
v 0.000000 0.035523 0.168515
v 0.000000 0.038450 0.153801
v 0.000000 0.035523 0.139087
v 0.000000 0.027188 0.126613
v 0.000000 0.014714 0.118278
v 0.000000 0.000000 0.115351
v 0.000000 -0.014714 0.118278
v 0.000000 -0.027188 0.126613
v 0.000000 -0.035523 0.139087
v 0.000000 -0.038450 0.153801
v 0.000000 -0.035523 0.168515
v 0.000000 -0.027188 0.180990
v 0.000000 -0.014714 0.189325
v 0.073572 0.000000 0.177617
v 0.072451 0.014714 0.174913
v 0.069262 0.027188 0.167213
v 0.064488 0.035523 0.155688
v 0.058857 0.038450 0.142094
v 0.053226 0.035523 0.128500
v 0.048453 0.027188 0.116975
v 0.045263 0.014714 0.109274
v 0.044143 0.000000 0.106570
v 0.045263 -0.014714 0.109274
v 0.048453 -0.027188 0.116975
v 0.053226 -0.035523 0.128500
v 0.058857 -0.038450 0.142094
v 0.064488 -0.035523 0.155688
v 0.069262 -0.027188 0.167213
v 0.072451 -0.014714 0.174913
v 0.135942 0.000000 0.135942
v 0.133873 0.014714 0.133873
v 0.127979 0.027188 0.127979
v 0.119158 0.035523 0.119159
v 0.108754 0.038450 0.108754
v 0.098349 0.035523 0.098349
v 0.089529 0.027188 0.089529
v 0.083635 0.014714 0.083635
v 0.081565 0.000000 0.081565
v 0.083635 -0.014714 0.083635
v 0.089529 -0.027188 0.089529
v 0.098349 -0.035523 0.098349
v 0.108754 -0.038450 0.108754
v 0.119158 -0.035523 0.119159
v 0.127979 -0.027188 0.127979
v 0.133873 -0.014714 0.133873
v 0.177617 0.000000 0.073572
v 0.174913 0.014714 0.072451
v 0.167213 0.027188 0.069262
v 0.155688 0.035523 0.064488
v 0.142094 0.038450 0.058857
v 0.128500 0.035523 0.053226
v 0.116975 0.027188 0.048453
v 0.109274 0.014714 0.045263
v 0.106570 0.000000 0.044143
v 0.109274 -0.014714 0.045263
v 0.116975 -0.027188 0.048453
v 0.128500 -0.035523 0.053226
v 0.142094 -0.038450 0.058857
v 0.155688 -0.035523 0.064488
v 0.167213 -0.027188 0.069262
v 0.174913 -0.014714 0.072451
vn 0.9626 0.1915 -0.1915
vn 0.8203 0.5481 -0.1632
vn 0.5522 0.8264 -0.1098
vn 0.1949 0.9800 -0.0388
vn -0.1949 0.9800 0.0388
vn -0.5522 0.8264 0.1098
vn -0.8203 0.5481 0.1632
vn -0.9626 0.1915 0.1915
vn -0.9626 -0.1915 0.1915
vn -0.8203 -0.5481 0.1632
vn -0.5522 -0.8264 0.1098
vn -0.1949 -0.9800 0.0388
vn 0.1949 -0.9800 -0.0388
vn 0.5522 -0.8264 -0.1098
vn 0.8203 -0.5481 -0.1632
vn 0.9626 -0.1915 -0.1915
vn 0.8161 0.1915 -0.5453
vn 0.6954 0.5481 -0.4647
vn 0.4681 0.8264 -0.3128
vn 0.1653 0.9800 -0.1104
vn -0.1653 0.9800 0.1104
vn -0.4681 0.8264 0.3128
vn -0.6954 0.5481 0.4647
vn -0.8161 0.1915 0.5453
vn -0.8161 -0.1915 0.5453
vn -0.6954 -0.5481 0.4647
vn -0.4681 -0.8264 0.3128
vn -0.1653 -0.9800 0.1104
vn 0.1653 -0.9800 -0.1104
vn 0.4681 -0.8264 -0.3128
vn 0.6954 -0.5481 -0.4647
vn 0.8161 -0.1915 -0.5453
vn 0.5453 0.1915 -0.8161
vn 0.4647 0.5481 -0.6954
vn 0.3128 0.8264 -0.4681
vn 0.1104 0.9800 -0.1653
vn -0.1104 0.9800 0.1653
vn -0.3128 0.8264 0.4681
vn -0.4647 0.5481 0.6954
vn -0.5453 0.1915 0.8161
vn -0.5453 -0.1915 0.8161
vn -0.4647 -0.5481 0.6954
vn -0.3128 -0.8264 0.4681
vn -0.1104 -0.9800 0.1653
vn 0.1104 -0.9800 -0.1653
vn 0.3128 -0.8264 -0.4681
vn 0.4647 -0.5481 -0.6954
vn 0.5453 -0.1915 -0.8161
vn 0.1915 0.1915 -0.9626
vn 0.1632 0.5481 -0.8203
vn 0.1098 0.8264 -0.5522
vn 0.0388 0.9800 -0.1949
vn -0.0388 0.9800 0.1949
vn -0.1098 0.8264 0.5522
vn -0.1632 0.5481 0.8203
vn -0.1915 0.1915 0.9626
vn -0.1915 -0.1915 0.9626
vn -0.1632 -0.5481 0.8203
vn -0.1098 -0.8264 0.5522
vn -0.0388 -0.9800 0.1949
vn 0.0388 -0.9800 -0.1949
vn 0.1098 -0.8264 -0.5522
vn 0.1632 -0.5481 -0.8203
vn 0.1915 -0.1915 -0.9626
vn -0.1915 0.1915 -0.9626
vn -0.1632 0.5481 -0.8203
vn -0.1098 0.8264 -0.5522
vn -0.0388 0.9800 -0.1949
vn 0.0388 0.9800 0.1949
vn 0.1098 0.8264 0.5522
vn 0.1632 0.5481 0.8203
vn 0.1915 0.1915 0.9626
vn 0.1915 -0.1915 0.9626
vn 0.1632 -0.5481 0.8203
vn 0.1098 -0.8264 0.5522
vn 0.0388 -0.9800 0.1949
vn -0.0388 -0.9800 -0.1949
vn -0.1098 -0.8264 -0.5522
vn -0.1632 -0.5481 -0.8203
vn -0.1915 -0.1915 -0.9626
vn -0.5453 0.1915 -0.8161
vn -0.4647 0.5481 -0.6954
vn -0.3128 0.8264 -0.4681
vn -0.1104 0.9800 -0.1653
vn 0.1104 0.9800 0.1653
vn 0.3128 0.8264 0.4681
vn 0.4647 0.5481 0.6954
vn 0.5453 0.1915 0.8161
vn 0.5453 -0.1915 0.8161
vn 0.4647 -0.5481 0.6954
vn 0.3128 -0.8264 0.4681
vn 0.1104 -0.9800 0.1653
vn -0.1104 -0.9800 -0.1653
vn -0.3128 -0.8264 -0.4681
vn -0.4647 -0.5481 -0.6954
vn -0.5453 -0.1915 -0.8161
vn -0.8161 0.1915 -0.5453
vn -0.6954 0.5481 -0.4647
vn -0.4681 0.8264 -0.3128
vn -0.1653 0.9800 -0.1104
vn 0.1653 0.9800 0.1104
vn 0.4681 0.8264 0.3128
vn 0.6954 0.5481 0.4647
vn 0.8161 0.1915 0.5453
vn 0.8161 -0.1915 0.5453
vn 0.6954 -0.5481 0.4647
vn 0.4681 -0.8264 0.3128
vn 0.1653 -0.9800 0.1104
vn -0.1653 -0.9800 -0.1104
vn -0.4681 -0.8264 -0.3128
vn -0.6954 -0.5481 -0.4647
vn -0.8161 -0.1915 -0.5453
vn -0.9626 0.1915 -0.1915
vn -0.8203 0.5481 -0.1632
vn -0.5522 0.8264 -0.1098
vn -0.1949 0.9800 -0.0388
vn 0.1949 0.9800 0.0388
vn 0.5522 0.8264 0.1098
vn 0.8203 0.5481 0.1632
vn 0.9626 0.1915 0.1915
vn 0.9626 -0.1915 0.1915
vn 0.8203 -0.5481 0.1632
vn 0.5522 -0.8264 0.1098
vn 0.1949 -0.9800 0.0388
vn -0.1949 -0.9800 -0.0388
vn -0.5522 -0.8264 -0.1098
vn -0.8203 -0.5481 -0.1632
vn -0.9626 -0.1915 -0.1915
usemtl None
s off
f 1//1 17//1 18//1 2//1
f 2//2 18//2 19//2 3//2
f 3//3 19//3 20//3 4//3
f 4//4 20//4 21//4 5//4
f 5//5 21//5 22//5 6//5
f 6//6 22//6 23//6 7//6
f 7//7 23//7 24//7 8//7
f 8//8 24//8 25//8 9//8
f 9//9 25//9 26//9 10//9
f 10//10 26//10 27//10 11//10
f 11//11 27//11 28//11 12//11
f 12//12 28//12 29//12 13//12
f 13//13 29//13 30//13 14//13
f 14//14 30//14 31//14 15//14
f 15//15 31//15 32//15 16//15
f 1//16 16//16 32//16 17//16
f 17//17 33//17 34//17 18//17
f 18//18 34//18 35//18 19//18
f 19//19 35//19 36//19 20//19
f 20//20 36//20 37//20 21//20
f 21//21 37//21 38//21 22//21
f 22//22 38//22 39//22 23//22
f 23//23 39//23 40//23 24//23
f 24//24 40//24 41//24 25//24
f 25//25 41//25 42//25 26//25
f 26//26 42//26 43//26 27//26
f 27//27 43//27 44//27 28//27
f 28//28 44//28 45//28 29//28
f 29//29 45//29 46//29 30//29
f 30//30 46//30 47//30 31//30
f 31//31 47//31 48//31 32//31
f 32//32 48//32 33//32 17//32
f 33//33 49//33 50//33 34//33
f 34//34 50//34 51//34 35//34
f 35//35 51//35 52//35 36//35
f 36//36 52//36 53//36 37//36
f 37//37 53//37 54//37 38//37
f 38//38 54//38 55//38 39//38
f 39//39 55//39 56//39 40//39
f 40//40 56//40 57//40 41//40
f 41//41 57//41 58//41 42//41
f 42//42 58//42 59//42 43//42
f 43//43 59//43 60//43 44//43
f 44//44 60//44 61//44 45//44
f 45//45 61//45 62//45 46//45
f 46//46 62//46 63//46 47//46
f 47//47 63//47 64//47 48//47
f 48//48 64//48 49//48 33//48
f 49//49 65//49 66//49 50//49
f 50//50 66//50 67//50 51//50
f 51//51 67//51 68//51 52//51
f 52//52 68//52 69//52 53//52
f 53//53 69//53 70//53 54//53
f 54//54 70//54 71//54 55//54
f 55//55 71//55 72//55 56//55
f 56//56 72//56 73//56 57//56
f 57//57 73//57 74//57 58//57
f 58//58 74//58 75//58 59//58
f 59//59 75//59 76//59 60//59
f 60//60 76//60 77//60 61//60
f 61//61 77//61 78//61 62//61
f 62//62 78//62 79//62 63//62
f 63//63 79//63 80//63 64//63
f 64//64 80//64 65//64 49//64
f 65//65 81//65 82//65 66//65
f 66//66 82//66 83//66 67//66
f 67//67 83//67 84//67 68//67
f 68//68 84//68 85//68 69//68
f 69//69 85//69 86//69 70//69
f 70//70 86//70 87//70 71//70
f 71//71 87//71 88//71 72//71
f 72//72 88//72 89//72 73//72
f 73//73 89//73 90//73 74//73
f 74//74 90//74 91//74 75//74
f 75//75 91//75 92//75 76//75
f 76//76 92//76 93//76 77//76
f 77//77 93//77 94//77 78//77
f 78//78 94//78 95//78 79//78
f 79//79 95//79 96//79 80//79
f 80//80 96//80 81//80 65//80
f 81//81 97//81 98//81 82//81
f 82//82 98//82 99//82 83//82
f 83//83 99//83 100//83 84//83
f 84//84 100//84 101//84 85//84
f 85//85 101//85 102//85 86//85
f 86//86 102//86 103//86 87//86
f 87//87 103//87 104//87 88//87
f 88//88 104//88 105//88 89//88
f 89//89 105//89 106//89 90//89
f 90//90 106//90 107//90 91//90
f 91//91 107//91 108//91 92//91
f 92//92 108//92 109//92 93//92
f 93//93 109//93 110//93 94//93
f 94//94 110//94 111//94 95//94
f 95//95 111//95 112//95 96//95
f 96//96 112//96 97//96 81//96
f 97//97 113//97 114//97 98//97
f 98//98 114//98 115//98 99//98
f 99//99 115//99 116//99 100//99
f 100//100 116//100 117//100 101//100
f 101//101 117//101 118//101 102//101
f 102//102 118//102 119//102 103//102
f 103//103 119//103 120//103 104//103
f 104//104 120//104 121//104 105//104
f 105//105 121//105 122//105 106//105
f 106//106 122//106 123//106 107//106
f 107//107 123//107 124//107 108//107
f 108//108 124//108 125//108 109//108
f 109//109 125//109 126//109 110//109
f 110//110 126//110 127//110 111//110
f 111//111 127//111 128//111 112//111
f 112//112 128//112 113//112 97//112
f 113//113 129//113 130//113 114//113
f 114//114 130//114 131//114 115//114
f 115//115 131//115 132//115 116//115
f 116//116 132//116 133//116 117//116
f 117//117 133//117 134//117 118//117
f 118//118 134//118 135//118 119//118
f 119//119 135//119 136//119 120//119
f 120//120 136//120 137//120 121//120
f 121//121 137//121 138//121 122//121
f 122//122 138//122 139//122 123//122
f 123//123 139//123 140//123 124//123
f 124//124 140//124 141//124 125//124
f 125//125 141//125 142//125 126//125
f 126//126 142//126 143//126 127//126
f 127//127 143//127 144//127 128//127
f 128//128 144//128 129//128 113//128
f 129//8 145//8 146//8 130//8
f 130//7 146//7 147//7 131//7
f 131//6 147//6 148//6 132//6
f 132//5 148//5 149//5 133//5
f 133//4 149//4 150//4 134//4
f 134//3 150//3 151//3 135//3
f 135//2 151//2 152//2 136//2
f 136//1 152//1 153//1 137//1
f 137//16 153//16 154//16 138//16
f 138//15 154//15 155//15 139//15
f 139//14 155//14 156//14 140//14
f 140//13 156//13 157//13 141//13
f 141//12 157//12 158//12 142//12
f 142//11 158//11 159//11 143//11
f 143//10 159//10 160//10 144//10
f 144//9 160//9 145//9 129//9
f 145//24 161//24 162//24 146//24
f 146//23 162//23 163//23 147//23
f 147//22 163//22 164//22 148//22
f 148//21 164//21 165//21 149//21
f 149//20 165//20 166//20 150//20
f 150//19 166//19 167//19 151//19
f 151//18 167//18 168//18 152//18
f 152//17 168//17 169//17 153//17
f 153//32 169//32 170//32 154//32
f 154//31 170//31 171//31 155//31
f 155//30 171//30 172//30 156//30
f 156//29 172//29 173//29 157//29
f 157//28 173//28 174//28 158//28
f 158//27 174//27 175//27 159//27
f 159//26 175//26 176//26 160//26
f 160//25 176//25 161//25 145//25
f 161//40 177//40 178//40 162//40
f 162//39 178//39 179//39 163//39
f 163//38 179//38 180//38 164//38
f 164//37 180//37 181//37 165//37
f 165//36 181//36 182//36 166//36
f 166//35 182//35 183//35 167//35
f 167//34 183//34 184//34 168//34
f 168//33 184//33 185//33 169//33
f 169//48 185//48 186//48 170//48
f 170//47 186//47 187//47 171//47
f 171//46 187//46 188//46 172//46
f 172//45 188//45 189//45 173//45
f 173//44 189//44 190//44 174//44
f 174//43 190//43 191//43 175//43
f 175//42 191//42 192//42 176//42
f 176//41 192//41 177//41 161//41
f 177//56 193//56 194//56 178//56
f 178//55 194//55 195//55 179//55
f 179//54 195//54 196//54 180//54
f 180//53 196//53 197//53 181//53
f 181//52 197//52 198//52 182//52
f 182//51 198//51 199//51 183//51
f 183//50 199//50 200//50 184//50
f 184//49 200//49 201//49 185//49
f 185//64 201//64 202//64 186//64
f 186//63 202//63 203//63 187//63
f 187//62 203//62 204//62 188//62
f 188//61 204//61 205//61 189//61
f 189//60 205//60 206//60 190//60
f 190//59 206//59 207//59 191//59
f 191//58 207//58 208//58 192//58
f 192//57 208//57 193//57 177//57
f 193//72 209//72 210//72 194//72
f 194//71 210//71 211//71 195//71
f 195//70 211//70 212//70 196//70
f 196//69 212//69 213//69 197//69
f 197//68 213//68 214//68 198//68
f 198//67 214//67 215//67 199//67
f 199//66 215//66 216//66 200//66
f 200//65 216//65 217//65 201//65
f 201//80 217//80 218//80 202//80
f 202//79 218//79 219//79 203//79
f 203//78 219//78 220//78 204//78
f 204//77 220//77 221//77 205//77
f 205//76 221//76 222//76 206//76
f 206//75 222//75 223//75 207//75
f 207//74 223//74 224//74 208//74
f 208//73 224//73 209//73 193//73
f 209//88 225//88 226//88 210//88
f 210//87 226//87 227//87 211//87
f 211//86 227//86 228//86 212//86
f 212//85 228//85 229//85 213//85
f 213//84 229//84 230//84 214//84
f 214//83 230//83 231//83 215//83
f 215//82 231//82 232//82 216//82
f 216//81 232//81 233//81 217//81
f 217//96 233//96 234//96 218//96
f 218//95 234//95 235//95 219//95
f 219//94 235//94 236//94 220//94
f 220//93 236//93 237//93 221//93
f 221//92 237//92 238//92 222//92
f 222//91 238//91 239//91 223//91
f 223//90 239//90 240//90 224//90
f 224//89 240//89 225//89 209//89
f 225//104 241//104 242//104 226//104
f 226//103 242//103 243//103 227//103
f 227//102 243//102 244//102 228//102
f 228//101 244//101 245//101 229//101
f 229//100 245//100 246//100 230//100
f 230//99 246//99 247//99 231//99
f 231//98 247//98 248//98 232//98
f 232//97 248//97 249//97 233//97
f 233//112 249//112 250//112 234//112
f 234//111 250//111 251//111 235//111
f 235//110 251//110 252//110 236//110
f 236//109 252//109 253//109 237//109
f 237//108 253//108 254//108 238//108
f 238//107 254//107 255//107 239//107
f 239//106 255//106 256//106 240//106
f 240//105 256//105 241//105 225//105
f 241//120 1//120 2//120 242//120
f 242//119 2//119 3//119 243//119
f 243//118 3//118 4//118 244//118
f 244//117 4//117 5//117 245//117
f 245//116 5//116 6//116 246//116
f 246//115 6//115 7//115 247//115
f 247//114 7//114 8//114 248//114
f 248//113 8//113 9//113 249//113
f 249//128 9//128 10//128 250//128
f 250//127 10//127 11//127 251//127
f 251//126 11//126 12//126 252//126
f 252//125 12//125 13//125 253//125
f 253//124 13//124 14//124 254//124
f 254//123 14//123 15//123 255//123
f 255//122 15//122 16//122 256//122
f 256//121 16//121 1//121 241//121
