# Blender v2.78 (sub 0) OBJ File: 'StaffHead5.blend'
# www.blender.org
mtllib StaffHead5.mtl
o Grid.002
v -0.200000 -0.051764 -0.193185
v -0.120000 -0.100000 -0.173205
v -0.040000 -0.128558 -0.153209
v 0.040000 -0.163830 -0.114715
v 0.120000 -0.163830 -0.114715
v 0.200000 -0.153209 -0.128558
v -0.200000 -0.060000 -0.103923
v -0.120000 -0.077135 -0.091925
v -0.040000 -0.098298 -0.068829
v 0.040000 -0.103923 -0.060000
v 0.120000 -0.103923 -0.060000
v 0.200000 -0.098298 -0.068829
v -0.200000 -0.025712 -0.030642
v -0.120000 -0.032766 -0.022943
v -0.040000 -0.034641 -0.020000
v 0.040000 -0.034641 -0.020000
v 0.120000 -0.034641 -0.020000
v 0.200000 -0.032766 -0.022943
v -0.200000 0.032766 0.022943
v -0.120000 0.034641 0.020000
v -0.040000 0.034641 0.020000
v 0.040000 0.034641 0.020000
v 0.120000 0.032766 0.022943
v 0.200000 0.025712 0.030642
v -0.200000 0.098298 0.068829
v -0.120000 0.103923 0.060000
v -0.040000 0.103923 0.060000
v 0.040000 0.098298 0.068829
v 0.120000 0.077135 0.091925
v 0.200000 0.060000 0.103923
v -0.200000 0.153209 0.128558
v -0.120000 0.163830 0.114715
v -0.040000 0.163830 0.114715
v 0.040000 0.128558 0.153209
v 0.120000 0.100000 0.173205
v 0.200000 0.051764 0.193185
vn -0.3905 -0.9172 0.0787
vn -0.3537 -0.8907 0.2856
vn -0.3514 -0.7856 0.5093
vn 0.0000 -0.6744 0.7384
vn 0.1695 -0.6957 0.6980
vn -0.1884 -0.8595 0.4752
vn -0.2112 -0.7204 0.6606
vn -0.0653 -0.5544 0.8297
vn 0.0000 -0.5000 0.8660
vn 0.0869 -0.5353 0.8402
vn -0.0432 -0.6079 0.7928
vn -0.0218 -0.5186 0.8547
usemtl None
s off
f 1//1 2//1 8//1 7//1
f 2//2 3//2 9//2 8//2
f 3//3 4//3 10//3 9//3
f 4//4 5//4 11//4 10//4
f 5//5 6//5 12//5 11//5
f 7//6 8//6 14//6 13//6
f 8//7 9//7 15//7 14//7
f 9//8 10//8 16//8 15//8
f 10//9 11//9 17//9 16//9
f 11//10 12//10 18//10 17//10
f 13//11 14//11 20//11 19//11
f 14//12 15//12 21//12 20//12
f 15//9 16//9 22//9 21//9
f 16//12 17//12 23//12 22//12
f 17//11 18//11 24//11 23//11
f 19//10 20//10 26//10 25//10
f 20//9 21//9 27//9 26//9
f 21//8 22//8 28//8 27//8
f 22//7 23//7 29//7 28//7
f 23//6 24//6 30//6 29//6
f 25//5 26//5 32//5 31//5
f 26//4 27//4 33//4 32//4
f 27//3 28//3 34//3 33//3
f 28//2 29//2 35//2 34//2
f 29//1 30//1 36//1 35//1
o Grid.001
v -0.200000 -0.193185 -0.051764
v -0.120000 -0.200000 -0.000000
v -0.040000 -0.196962 0.034730
v 0.040000 -0.181262 0.084524
v 0.120000 -0.181262 0.084524
v 0.200000 -0.187939 0.068404
v -0.200000 -0.120000 -0.000000
v -0.120000 -0.118177 0.020838
v -0.040000 -0.108757 0.050714
v 0.040000 -0.103923 0.060000
v 0.120000 -0.103923 0.060000
v 0.200000 -0.108757 0.050714
v -0.200000 -0.039392 0.006946
v -0.120000 -0.036252 0.016905
v -0.040000 -0.034641 0.020000
v 0.040000 -0.034641 0.020000
v 0.120000 -0.034641 0.020000
v 0.200000 -0.036252 0.016905
v -0.200000 0.036252 -0.016905
v -0.120000 0.034641 -0.020000
v -0.040000 0.034641 -0.020000
v 0.040000 0.034641 -0.020000
v 0.120000 0.036252 -0.016905
v 0.200000 0.039392 -0.006946
v -0.200000 0.108757 -0.050714
v -0.120000 0.103923 -0.060000
v -0.040000 0.103923 -0.060000
v 0.040000 0.108757 -0.050714
v 0.120000 0.118177 -0.020838
v 0.200000 0.120000 0.000000
v -0.200000 0.187939 -0.068404
v -0.120000 0.181262 -0.084524
v -0.040000 0.181262 -0.084524
v 0.040000 0.196962 -0.034730
v 0.120000 0.200000 0.000000
v 0.200000 0.193185 0.051764
vn -0.3905 -0.3905 0.8337
vn -0.3537 -0.1980 0.9142
vn -0.3514 0.0482 0.9350
vn -0.0000 0.3023 0.9532
vn 0.1695 0.2566 0.9515
vn -0.1884 -0.0182 0.9819
vn -0.2112 0.2119 0.9542
vn -0.0653 0.4413 0.8950
vn -0.0000 0.5000 0.8660
vn 0.0869 0.4600 0.8837
vn -0.0432 0.3826 0.9229
vn -0.0218 0.4809 0.8765
usemtl None
s off
f 37//13 38//13 44//13 43//13
f 38//14 39//14 45//14 44//14
f 39//15 40//15 46//15 45//15
f 40//16 41//16 47//16 46//16
f 41//17 42//17 48//17 47//17
f 43//18 44//18 50//18 49//18
f 44//19 45//19 51//19 50//19
f 45//20 46//20 52//20 51//20
f 46//21 47//21 53//21 52//21
f 47//22 48//22 54//22 53//22
f 49//23 50//23 56//23 55//23
f 50//24 51//24 57//24 56//24
f 51//21 52//21 58//21 57//21
f 52//24 53//24 59//24 58//24
f 53//23 54//23 60//23 59//23
f 55//22 56//22 62//22 61//22
f 56//21 57//21 63//21 62//21
f 57//20 58//20 64//20 63//20
f 58//19 59//19 65//19 64//19
f 59//18 60//18 66//18 65//18
f 61//17 62//17 68//17 67//17
f 62//16 63//16 69//16 68//16
f 63//15 64//15 70//15 69//15
f 64//14 65//14 71//14 70//14
f 65//13 66//13 72//13 71//13
o Grid
v -0.200000 -0.141421 0.141421
v -0.120000 -0.100000 0.173205
v -0.040000 -0.068404 0.187939
v 0.040000 -0.017431 0.199239
v 0.120000 -0.017431 0.199239
v 0.200000 -0.034730 0.196962
v -0.200000 -0.060000 0.103923
v -0.120000 -0.041042 0.112763
v -0.040000 -0.010459 0.119543
v 0.040000 0.000000 0.120000
v 0.120000 0.000000 0.120000
v 0.200000 -0.010459 0.119543
v -0.200000 -0.013681 0.037588
v -0.120000 -0.003486 0.039848
v -0.040000 -0.000000 0.040000
v 0.040000 0.000000 0.040000
v 0.120000 0.000000 0.040000
v 0.200000 -0.003486 0.039848
v -0.200000 0.003486 -0.039848
v -0.120000 -0.000000 -0.040000
v -0.040000 -0.000000 -0.040000
v 0.040000 0.000000 -0.040000
v 0.120000 0.003486 -0.039848
v 0.200000 0.013681 -0.037588
v -0.200000 0.010459 -0.119543
v -0.120000 -0.000000 -0.120000
v -0.040000 -0.000000 -0.120000
v 0.040000 0.010459 -0.119543
v 0.120000 0.041042 -0.112763
v 0.200000 0.060000 -0.103923
v -0.200000 0.034730 -0.196962
v -0.120000 0.017431 -0.199239
v -0.040000 0.017431 -0.199239
v 0.040000 0.068404 -0.187939
v 0.120000 0.100000 -0.173205
v 0.200000 0.141421 -0.141421
vn -0.3905 0.5268 0.7550
vn -0.3537 0.6927 0.6285
vn -0.3514 0.8338 0.4257
vn -0.0000 0.9766 0.2148
vn 0.1695 0.9524 0.2535
vn -0.1884 0.8413 0.5067
vn -0.2112 0.9323 0.2936
vn -0.0653 0.9957 0.0653
vn -0.0000 1.0000 0.0000
vn 0.0869 0.9953 0.0435
vn -0.0432 0.9906 0.1301
vn -0.0218 0.9995 0.0218
usemtl None
s off
f 73//25 74//25 80//25 79//25
f 74//26 75//26 81//26 80//26
f 75//27 76//27 82//27 81//27
f 76//28 77//28 83//28 82//28
f 77//29 78//29 84//29 83//29
f 79//30 80//30 86//30 85//30
f 80//31 81//31 87//31 86//31
f 81//32 82//32 88//32 87//32
f 82//33 83//33 89//33 88//33
f 83//34 84//34 90//34 89//34
f 85//35 86//35 92//35 91//35
f 86//36 87//36 93//36 92//36
f 87//33 88//33 94//33 93//33
f 88//36 89//36 95//36 94//36
f 89//35 90//35 96//35 95//35
f 91//34 92//34 98//34 97//34
f 92//33 93//33 99//33 98//33
f 93//32 94//32 100//32 99//32
f 94//31 95//31 101//31 100//31
f 95//30 96//30 102//30 101//30
f 97//29 98//29 104//29 103//29
f 98//28 99//28 105//28 104//28
f 99//27 100//27 106//27 105//27
f 100//26 101//26 107//26 106//26
f 101//25 102//25 108//25 107//25
