# Blender v2.78 (sub 0) OBJ File: 'WaveAttack1.blend'
# www.blender.org
mtllib WaveAttack1.mtl
o Circle
v -0.500000 0.000000 0.866025
v -0.173649 0.000000 0.984808
v 0.173648 0.000000 0.984808
v 0.499999 0.000000 0.866026
v -0.633022 0.000000 0.754406
v -0.352239 0.000000 0.829312
v -0.336824 0.000000 0.925416
v -0.147601 0.000000 0.837087
v -0.000001 0.000000 0.984808
v 0.147601 0.000000 0.837087
v 0.336824 0.000000 0.925417
v 0.352239 0.000000 0.829313
v 0.633022 0.000000 0.754407
vn 0.0000 1.0000 0.0000
usemtl None
s off
f 12//1 4//1 13//1
f 12//1 11//1 4//1
f 12//1 10//1 11//1
f 10//1 3//1 11//1
f 10//1 9//1 3//1
f 10//1 8//1 9//1
f 8//1 2//1 9//1
f 8//1 7//1 2//1
f 8//1 6//1 7//1
f 6//1 1//1 7//1
f 6//1 5//1 1//1
